%TF.GenerationSoftware,KiCad,Pcbnew,8.0.7*%
%TF.CreationDate,2025-01-16T17:26:47-05:00*%
%TF.ProjectId,simple_ide,73696d70-6c65-45f6-9964-652e6b696361,rev?*%
%TF.SameCoordinates,Original*%
%TF.FileFunction,Drillmap*%
%TF.FilePolarity,Positive*%
%FSLAX45Y45*%
G04 Gerber Fmt 4.5, Leading zero omitted, Abs format (unit mm)*
G04 Created by KiCad (PCBNEW 8.0.7) date 2025-01-16 17:26:47*
%MOMM*%
%LPD*%
G01*
G04 APERTURE LIST*
%ADD10C,0.050000*%
%ADD11C,0.200000*%
G04 APERTURE END LIST*
D10*
X14297761Y-4000221D02*
G75*
G02*
X14797689Y-3496938I508529J-5199D01*
G01*
X18400000Y-13500000D02*
X14800000Y-13500000D01*
X18400000Y-3500000D02*
X18400000Y-13500000D01*
X14800000Y-13500000D02*
G75*
G02*
X14295332Y-13000021I0J504690D01*
G01*
X14297446Y-3999989D02*
X14295197Y-13000010D01*
X18399234Y-3500000D02*
X14797689Y-3496933D01*
D11*
X14553474Y-13813984D02*
X14553474Y-13613984D01*
X14553474Y-13613984D02*
X14601093Y-13613984D01*
X14601093Y-13613984D02*
X14629664Y-13623508D01*
X14629664Y-13623508D02*
X14648712Y-13642555D01*
X14648712Y-13642555D02*
X14658236Y-13661603D01*
X14658236Y-13661603D02*
X14667760Y-13699698D01*
X14667760Y-13699698D02*
X14667760Y-13728269D01*
X14667760Y-13728269D02*
X14658236Y-13766365D01*
X14658236Y-13766365D02*
X14648712Y-13785412D01*
X14648712Y-13785412D02*
X14629664Y-13804460D01*
X14629664Y-13804460D02*
X14601093Y-13813984D01*
X14601093Y-13813984D02*
X14553474Y-13813984D01*
X14753474Y-13813984D02*
X14753474Y-13680650D01*
X14753474Y-13718746D02*
X14762998Y-13699698D01*
X14762998Y-13699698D02*
X14772521Y-13690174D01*
X14772521Y-13690174D02*
X14791569Y-13680650D01*
X14791569Y-13680650D02*
X14810617Y-13680650D01*
X14877283Y-13813984D02*
X14877283Y-13680650D01*
X14877283Y-13613984D02*
X14867760Y-13623508D01*
X14867760Y-13623508D02*
X14877283Y-13633031D01*
X14877283Y-13633031D02*
X14886807Y-13623508D01*
X14886807Y-13623508D02*
X14877283Y-13613984D01*
X14877283Y-13613984D02*
X14877283Y-13633031D01*
X15001093Y-13813984D02*
X14982045Y-13804460D01*
X14982045Y-13804460D02*
X14972521Y-13785412D01*
X14972521Y-13785412D02*
X14972521Y-13613984D01*
X15105855Y-13813984D02*
X15086807Y-13804460D01*
X15086807Y-13804460D02*
X15077283Y-13785412D01*
X15077283Y-13785412D02*
X15077283Y-13613984D01*
X15334426Y-13813984D02*
X15334426Y-13613984D01*
X15334426Y-13613984D02*
X15401093Y-13756841D01*
X15401093Y-13756841D02*
X15467760Y-13613984D01*
X15467760Y-13613984D02*
X15467760Y-13813984D01*
X15648712Y-13813984D02*
X15648712Y-13709222D01*
X15648712Y-13709222D02*
X15639188Y-13690174D01*
X15639188Y-13690174D02*
X15620141Y-13680650D01*
X15620141Y-13680650D02*
X15582045Y-13680650D01*
X15582045Y-13680650D02*
X15562998Y-13690174D01*
X15648712Y-13804460D02*
X15629664Y-13813984D01*
X15629664Y-13813984D02*
X15582045Y-13813984D01*
X15582045Y-13813984D02*
X15562998Y-13804460D01*
X15562998Y-13804460D02*
X15553474Y-13785412D01*
X15553474Y-13785412D02*
X15553474Y-13766365D01*
X15553474Y-13766365D02*
X15562998Y-13747317D01*
X15562998Y-13747317D02*
X15582045Y-13737793D01*
X15582045Y-13737793D02*
X15629664Y-13737793D01*
X15629664Y-13737793D02*
X15648712Y-13728269D01*
X15743950Y-13680650D02*
X15743950Y-13880650D01*
X15743950Y-13690174D02*
X15762998Y-13680650D01*
X15762998Y-13680650D02*
X15801093Y-13680650D01*
X15801093Y-13680650D02*
X15820141Y-13690174D01*
X15820141Y-13690174D02*
X15829664Y-13699698D01*
X15829664Y-13699698D02*
X15839188Y-13718746D01*
X15839188Y-13718746D02*
X15839188Y-13775888D01*
X15839188Y-13775888D02*
X15829664Y-13794936D01*
X15829664Y-13794936D02*
X15820141Y-13804460D01*
X15820141Y-13804460D02*
X15801093Y-13813984D01*
X15801093Y-13813984D02*
X15762998Y-13813984D01*
X15762998Y-13813984D02*
X15743950Y-13804460D01*
X15924902Y-13794936D02*
X15934426Y-13804460D01*
X15934426Y-13804460D02*
X15924902Y-13813984D01*
X15924902Y-13813984D02*
X15915379Y-13804460D01*
X15915379Y-13804460D02*
X15924902Y-13794936D01*
X15924902Y-13794936D02*
X15924902Y-13813984D01*
X15924902Y-13690174D02*
X15934426Y-13699698D01*
X15934426Y-13699698D02*
X15924902Y-13709222D01*
X15924902Y-13709222D02*
X15915379Y-13699698D01*
X15915379Y-13699698D02*
X15924902Y-13690174D01*
X15924902Y-13690174D02*
X15924902Y-13709222D01*
M02*
