M48
; DRILL file {KiCad 8.0.7} date 2025-01-16T17:26:47-0500
; FORMAT={-:-/ absolute / metric / decimal}
; #@! TF.CreationDate,2025-01-16T17:26:47-05:00
; #@! TF.GenerationSoftware,Kicad,Pcbnew,8.0.7
; #@! TF.FileFunction,Plated,1,4,PTH
FMAT,2
METRIC
; #@! TA.AperFunction,Plated,PTH,ComponentDrill
T1C0.800
; #@! TA.AperFunction,Plated,PTH,ComponentDrill
T2C0.900
; #@! TA.AperFunction,Plated,PTH,ComponentDrill
T3C1.000
%
G90
G05
T1
X146.0Y-76.6
X146.0Y-79.1
X149.48Y-51.06
X149.48Y-53.6
X149.48Y-56.14
X149.48Y-58.68
X149.48Y-61.22
X149.48Y-63.76
X149.48Y-66.3
X149.48Y-68.84
X149.48Y-71.38
X149.48Y-73.92
X149.48Y-76.46
X149.48Y-79.0
X151.8Y-86.9
X151.8Y-88.9
X151.8Y-90.9
X151.8Y-92.9
X151.8Y-94.9
X151.8Y-96.9
X151.8Y-98.9
X151.8Y-100.9
X151.8Y-102.9
X151.8Y-104.9
X151.8Y-106.9
X151.8Y-108.9
X151.8Y-110.9
X151.8Y-112.9
X151.8Y-114.9
X151.8Y-116.9
X151.8Y-118.9
X151.8Y-120.9
X151.8Y-122.9
X151.8Y-124.9
X151.8Y-126.9
X151.8Y-128.9
X153.8Y-86.9
X153.8Y-88.9
X153.8Y-90.9
X153.8Y-92.9
X153.8Y-94.9
X153.8Y-96.9
X153.8Y-98.9
X153.8Y-100.9
X153.8Y-102.9
X153.8Y-104.9
X153.8Y-106.9
X153.8Y-108.9
X153.8Y-110.9
X153.8Y-112.9
X153.8Y-114.9
X153.8Y-116.9
X153.8Y-118.9
X153.8Y-120.9
X153.8Y-122.9
X153.8Y-124.9
X153.8Y-126.9
X153.8Y-128.9
X157.1Y-51.06
X157.1Y-53.6
X157.1Y-56.14
X157.1Y-58.68
X157.1Y-61.22
X157.1Y-63.76
X157.1Y-66.3
X157.1Y-68.84
X157.1Y-71.38
X157.1Y-73.92
X157.1Y-76.46
X157.1Y-79.0
X157.5Y-96.59
X157.5Y-104.21
X158.9Y-107.0
X158.9Y-114.62
X160.5Y-96.59
X160.5Y-104.21
X164.43Y-83.185
X164.43Y-85.725
X164.43Y-88.265
X164.43Y-90.805
X164.43Y-93.345
X164.43Y-95.885
X164.43Y-98.425
X164.43Y-100.965
X164.43Y-103.505
X164.43Y-106.045
X164.43Y-109.76
X164.43Y-112.3
X164.43Y-114.84
X164.43Y-117.38
X164.43Y-119.92
X164.43Y-122.46
X164.43Y-125.0
X164.43Y-127.54
X164.43Y-130.08
X164.43Y-132.62
X164.53Y-51.05
X164.53Y-53.59
X164.53Y-56.13
X164.53Y-58.67
X164.53Y-61.21
X164.53Y-63.75
X164.53Y-66.29
X164.53Y-68.83
X164.53Y-71.37
X164.53Y-73.91
X164.53Y-76.45
X164.53Y-78.99
X172.05Y-83.185
X172.05Y-85.725
X172.05Y-88.265
X172.05Y-90.805
X172.05Y-93.345
X172.05Y-95.885
X172.05Y-98.425
X172.05Y-100.965
X172.05Y-103.505
X172.05Y-106.045
X172.05Y-109.76
X172.05Y-112.3
X172.05Y-114.84
X172.05Y-117.38
X172.05Y-119.92
X172.05Y-122.46
X172.05Y-125.0
X172.05Y-127.54
X172.05Y-130.08
X172.05Y-132.62
X172.15Y-51.05
X172.15Y-53.59
X172.15Y-56.13
X172.15Y-58.67
X172.15Y-61.21
X172.15Y-63.75
X172.15Y-66.29
X172.15Y-68.83
X172.15Y-71.37
X172.15Y-73.91
X172.15Y-76.45
X172.15Y-78.99
X175.35Y-50.95
X175.35Y-53.45
X175.35Y-83.135
X175.35Y-85.635
X175.35Y-109.71
X175.35Y-112.21
T2
X157.625Y-119.4
X160.165Y-119.4
T3
X178.662Y-45.6
X178.662Y-48.14
X178.662Y-50.68
X178.662Y-53.22
X178.662Y-55.76
X178.662Y-58.3
X178.662Y-60.84
X178.662Y-63.38
X178.662Y-65.92
X178.662Y-68.46
X178.662Y-71.0
X178.662Y-73.54
X178.662Y-76.08
X178.662Y-78.62
X178.662Y-81.16
X178.662Y-83.7
X178.662Y-86.24
X178.662Y-88.78
X178.662Y-91.32
X178.662Y-93.86
X178.662Y-96.4
X178.662Y-98.94
X178.662Y-101.48
X178.662Y-104.02
X178.662Y-106.56
X178.662Y-109.1
X178.662Y-111.64
X178.662Y-114.18
X178.662Y-116.72
X178.662Y-119.26
X178.662Y-121.8
X178.662Y-124.34
X181.202Y-45.6
X181.202Y-48.14
X181.202Y-50.68
X181.202Y-53.22
X181.202Y-55.76
X181.202Y-58.3
X181.202Y-60.84
X181.202Y-63.38
X181.202Y-65.92
X181.202Y-68.46
X181.202Y-71.0
X181.202Y-73.54
X181.202Y-76.08
X181.202Y-78.62
X181.202Y-81.16
X181.202Y-83.7
X181.202Y-86.24
X181.202Y-88.78
X181.202Y-91.32
X181.202Y-93.86
X181.202Y-96.4
X181.202Y-98.94
X181.202Y-101.48
X181.202Y-104.02
X181.202Y-106.56
X181.202Y-109.1
X181.202Y-111.64
X181.202Y-114.18
X181.202Y-116.72
X181.202Y-119.26
X181.202Y-121.8
X181.202Y-124.34
M30
