%TF.GenerationSoftware,KiCad,Pcbnew,8.0.7*%
%TF.CreationDate,2025-01-16T17:26:47-05:00*%
%TF.ProjectId,simple_ide,73696d70-6c65-45f6-9964-652e6b696361,rev?*%
%TF.SameCoordinates,Original*%
%TF.FileFunction,Drillmap*%
%TF.FilePolarity,Positive*%
%FSLAX45Y45*%
G04 Gerber Fmt 4.5, Leading zero omitted, Abs format (unit mm)*
G04 Created by KiCad (PCBNEW 8.0.7) date 2025-01-16 17:26:47*
%MOMM*%
%LPD*%
G01*
G04 APERTURE LIST*
%ADD10C,0.050000*%
%ADD11C,0.200000*%
%ADD12C,0.100000*%
G04 APERTURE END LIST*
D10*
X14297761Y-4000221D02*
G75*
G02*
X14797689Y-3496938I508529J-5199D01*
G01*
X18400000Y-13500000D02*
X14800000Y-13500000D01*
X18400000Y-3500000D02*
X18400000Y-13500000D01*
X14800000Y-13500000D02*
G75*
G02*
X14295332Y-13000021I0J504690D01*
G01*
X14297446Y-3999989D02*
X14295197Y-13000010D01*
X18399234Y-3500000D02*
X14797689Y-3496933D01*
D11*
D12*
X14560000Y-7620000D02*
X14640000Y-7700000D01*
X14640000Y-7620000D02*
X14560000Y-7700000D01*
X14560000Y-7870000D02*
X14640000Y-7950000D01*
X14640000Y-7870000D02*
X14560000Y-7950000D01*
X14908000Y-5066000D02*
X14988000Y-5146000D01*
X14988000Y-5066000D02*
X14908000Y-5146000D01*
X14908000Y-5320000D02*
X14988000Y-5400000D01*
X14988000Y-5320000D02*
X14908000Y-5400000D01*
X14908000Y-5574000D02*
X14988000Y-5654000D01*
X14988000Y-5574000D02*
X14908000Y-5654000D01*
X14908000Y-5828000D02*
X14988000Y-5908000D01*
X14988000Y-5828000D02*
X14908000Y-5908000D01*
X14908000Y-6082000D02*
X14988000Y-6162000D01*
X14988000Y-6082000D02*
X14908000Y-6162000D01*
X14908000Y-6336000D02*
X14988000Y-6416000D01*
X14988000Y-6336000D02*
X14908000Y-6416000D01*
X14908000Y-6590000D02*
X14988000Y-6670000D01*
X14988000Y-6590000D02*
X14908000Y-6670000D01*
X14908000Y-6844000D02*
X14988000Y-6924000D01*
X14988000Y-6844000D02*
X14908000Y-6924000D01*
X14908000Y-7098000D02*
X14988000Y-7178000D01*
X14988000Y-7098000D02*
X14908000Y-7178000D01*
X14908000Y-7352000D02*
X14988000Y-7432000D01*
X14988000Y-7352000D02*
X14908000Y-7432000D01*
X14908000Y-7606000D02*
X14988000Y-7686000D01*
X14988000Y-7606000D02*
X14908000Y-7686000D01*
X14908000Y-7860000D02*
X14988000Y-7940000D01*
X14988000Y-7860000D02*
X14908000Y-7940000D01*
X15140000Y-8650000D02*
X15220000Y-8730000D01*
X15220000Y-8650000D02*
X15140000Y-8730000D01*
X15140000Y-8850000D02*
X15220000Y-8930000D01*
X15220000Y-8850000D02*
X15140000Y-8930000D01*
X15140000Y-9050000D02*
X15220000Y-9130000D01*
X15220000Y-9050000D02*
X15140000Y-9130000D01*
X15140000Y-9250000D02*
X15220000Y-9330000D01*
X15220000Y-9250000D02*
X15140000Y-9330000D01*
X15140000Y-9450000D02*
X15220000Y-9530000D01*
X15220000Y-9450000D02*
X15140000Y-9530000D01*
X15140000Y-9650000D02*
X15220000Y-9730000D01*
X15220000Y-9650000D02*
X15140000Y-9730000D01*
X15140000Y-9850000D02*
X15220000Y-9930000D01*
X15220000Y-9850000D02*
X15140000Y-9930000D01*
X15140000Y-10050000D02*
X15220000Y-10130000D01*
X15220000Y-10050000D02*
X15140000Y-10130000D01*
X15140000Y-10250000D02*
X15220000Y-10330000D01*
X15220000Y-10250000D02*
X15140000Y-10330000D01*
X15140000Y-10450000D02*
X15220000Y-10530000D01*
X15220000Y-10450000D02*
X15140000Y-10530000D01*
X15140000Y-10650000D02*
X15220000Y-10730000D01*
X15220000Y-10650000D02*
X15140000Y-10730000D01*
X15140000Y-10850000D02*
X15220000Y-10930000D01*
X15220000Y-10850000D02*
X15140000Y-10930000D01*
X15140000Y-11050000D02*
X15220000Y-11130000D01*
X15220000Y-11050000D02*
X15140000Y-11130000D01*
X15140000Y-11250000D02*
X15220000Y-11330000D01*
X15220000Y-11250000D02*
X15140000Y-11330000D01*
X15140000Y-11450000D02*
X15220000Y-11530000D01*
X15220000Y-11450000D02*
X15140000Y-11530000D01*
X15140000Y-11650000D02*
X15220000Y-11730000D01*
X15220000Y-11650000D02*
X15140000Y-11730000D01*
X15140000Y-11850000D02*
X15220000Y-11930000D01*
X15220000Y-11850000D02*
X15140000Y-11930000D01*
X15140000Y-12050000D02*
X15220000Y-12130000D01*
X15220000Y-12050000D02*
X15140000Y-12130000D01*
X15140000Y-12250000D02*
X15220000Y-12330000D01*
X15220000Y-12250000D02*
X15140000Y-12330000D01*
X15140000Y-12450000D02*
X15220000Y-12530000D01*
X15220000Y-12450000D02*
X15140000Y-12530000D01*
X15140000Y-12650000D02*
X15220000Y-12730000D01*
X15220000Y-12650000D02*
X15140000Y-12730000D01*
X15140000Y-12850000D02*
X15220000Y-12930000D01*
X15220000Y-12850000D02*
X15140000Y-12930000D01*
X15340000Y-8650000D02*
X15420000Y-8730000D01*
X15420000Y-8650000D02*
X15340000Y-8730000D01*
X15340000Y-8850000D02*
X15420000Y-8930000D01*
X15420000Y-8850000D02*
X15340000Y-8930000D01*
X15340000Y-9050000D02*
X15420000Y-9130000D01*
X15420000Y-9050000D02*
X15340000Y-9130000D01*
X15340000Y-9250000D02*
X15420000Y-9330000D01*
X15420000Y-9250000D02*
X15340000Y-9330000D01*
X15340000Y-9450000D02*
X15420000Y-9530000D01*
X15420000Y-9450000D02*
X15340000Y-9530000D01*
X15340000Y-9650000D02*
X15420000Y-9730000D01*
X15420000Y-9650000D02*
X15340000Y-9730000D01*
X15340000Y-9850000D02*
X15420000Y-9930000D01*
X15420000Y-9850000D02*
X15340000Y-9930000D01*
X15340000Y-10050000D02*
X15420000Y-10130000D01*
X15420000Y-10050000D02*
X15340000Y-10130000D01*
X15340000Y-10250000D02*
X15420000Y-10330000D01*
X15420000Y-10250000D02*
X15340000Y-10330000D01*
X15340000Y-10450000D02*
X15420000Y-10530000D01*
X15420000Y-10450000D02*
X15340000Y-10530000D01*
X15340000Y-10650000D02*
X15420000Y-10730000D01*
X15420000Y-10650000D02*
X15340000Y-10730000D01*
X15340000Y-10850000D02*
X15420000Y-10930000D01*
X15420000Y-10850000D02*
X15340000Y-10930000D01*
X15340000Y-11050000D02*
X15420000Y-11130000D01*
X15420000Y-11050000D02*
X15340000Y-11130000D01*
X15340000Y-11250000D02*
X15420000Y-11330000D01*
X15420000Y-11250000D02*
X15340000Y-11330000D01*
X15340000Y-11450000D02*
X15420000Y-11530000D01*
X15420000Y-11450000D02*
X15340000Y-11530000D01*
X15340000Y-11650000D02*
X15420000Y-11730000D01*
X15420000Y-11650000D02*
X15340000Y-11730000D01*
X15340000Y-11850000D02*
X15420000Y-11930000D01*
X15420000Y-11850000D02*
X15340000Y-11930000D01*
X15340000Y-12050000D02*
X15420000Y-12130000D01*
X15420000Y-12050000D02*
X15340000Y-12130000D01*
X15340000Y-12250000D02*
X15420000Y-12330000D01*
X15420000Y-12250000D02*
X15340000Y-12330000D01*
X15340000Y-12450000D02*
X15420000Y-12530000D01*
X15420000Y-12450000D02*
X15340000Y-12530000D01*
X15340000Y-12650000D02*
X15420000Y-12730000D01*
X15420000Y-12650000D02*
X15340000Y-12730000D01*
X15340000Y-12850000D02*
X15420000Y-12930000D01*
X15420000Y-12850000D02*
X15340000Y-12930000D01*
X15670000Y-5066000D02*
X15750000Y-5146000D01*
X15750000Y-5066000D02*
X15670000Y-5146000D01*
X15670000Y-5320000D02*
X15750000Y-5400000D01*
X15750000Y-5320000D02*
X15670000Y-5400000D01*
X15670000Y-5574000D02*
X15750000Y-5654000D01*
X15750000Y-5574000D02*
X15670000Y-5654000D01*
X15670000Y-5828000D02*
X15750000Y-5908000D01*
X15750000Y-5828000D02*
X15670000Y-5908000D01*
X15670000Y-6082000D02*
X15750000Y-6162000D01*
X15750000Y-6082000D02*
X15670000Y-6162000D01*
X15670000Y-6336000D02*
X15750000Y-6416000D01*
X15750000Y-6336000D02*
X15670000Y-6416000D01*
X15670000Y-6590000D02*
X15750000Y-6670000D01*
X15750000Y-6590000D02*
X15670000Y-6670000D01*
X15670000Y-6844000D02*
X15750000Y-6924000D01*
X15750000Y-6844000D02*
X15670000Y-6924000D01*
X15670000Y-7098000D02*
X15750000Y-7178000D01*
X15750000Y-7098000D02*
X15670000Y-7178000D01*
X15670000Y-7352000D02*
X15750000Y-7432000D01*
X15750000Y-7352000D02*
X15670000Y-7432000D01*
X15670000Y-7606000D02*
X15750000Y-7686000D01*
X15750000Y-7606000D02*
X15670000Y-7686000D01*
X15670000Y-7860000D02*
X15750000Y-7940000D01*
X15750000Y-7860000D02*
X15670000Y-7940000D01*
X15710000Y-9619000D02*
X15790000Y-9699000D01*
X15790000Y-9619000D02*
X15710000Y-9699000D01*
X15710000Y-10381000D02*
X15790000Y-10461000D01*
X15790000Y-10381000D02*
X15710000Y-10461000D01*
X15850000Y-10660000D02*
X15930000Y-10740000D01*
X15930000Y-10660000D02*
X15850000Y-10740000D01*
X15850000Y-11422000D02*
X15930000Y-11502000D01*
X15930000Y-11422000D02*
X15850000Y-11502000D01*
X16010000Y-9619000D02*
X16090000Y-9699000D01*
X16090000Y-9619000D02*
X16010000Y-9699000D01*
X16010000Y-10381000D02*
X16090000Y-10461000D01*
X16090000Y-10381000D02*
X16010000Y-10461000D01*
X16403000Y-8278500D02*
X16483000Y-8358500D01*
X16483000Y-8278500D02*
X16403000Y-8358500D01*
X16403000Y-8532500D02*
X16483000Y-8612500D01*
X16483000Y-8532500D02*
X16403000Y-8612500D01*
X16403000Y-8786500D02*
X16483000Y-8866500D01*
X16483000Y-8786500D02*
X16403000Y-8866500D01*
X16403000Y-9040500D02*
X16483000Y-9120500D01*
X16483000Y-9040500D02*
X16403000Y-9120500D01*
X16403000Y-9294500D02*
X16483000Y-9374500D01*
X16483000Y-9294500D02*
X16403000Y-9374500D01*
X16403000Y-9548500D02*
X16483000Y-9628500D01*
X16483000Y-9548500D02*
X16403000Y-9628500D01*
X16403000Y-9802500D02*
X16483000Y-9882500D01*
X16483000Y-9802500D02*
X16403000Y-9882500D01*
X16403000Y-10056500D02*
X16483000Y-10136500D01*
X16483000Y-10056500D02*
X16403000Y-10136500D01*
X16403000Y-10310500D02*
X16483000Y-10390500D01*
X16483000Y-10310500D02*
X16403000Y-10390500D01*
X16403000Y-10564500D02*
X16483000Y-10644500D01*
X16483000Y-10564500D02*
X16403000Y-10644500D01*
X16403000Y-10936000D02*
X16483000Y-11016000D01*
X16483000Y-10936000D02*
X16403000Y-11016000D01*
X16403000Y-11190000D02*
X16483000Y-11270000D01*
X16483000Y-11190000D02*
X16403000Y-11270000D01*
X16403000Y-11444000D02*
X16483000Y-11524000D01*
X16483000Y-11444000D02*
X16403000Y-11524000D01*
X16403000Y-11698000D02*
X16483000Y-11778000D01*
X16483000Y-11698000D02*
X16403000Y-11778000D01*
X16403000Y-11952000D02*
X16483000Y-12032000D01*
X16483000Y-11952000D02*
X16403000Y-12032000D01*
X16403000Y-12206000D02*
X16483000Y-12286000D01*
X16483000Y-12206000D02*
X16403000Y-12286000D01*
X16403000Y-12460000D02*
X16483000Y-12540000D01*
X16483000Y-12460000D02*
X16403000Y-12540000D01*
X16403000Y-12714000D02*
X16483000Y-12794000D01*
X16483000Y-12714000D02*
X16403000Y-12794000D01*
X16403000Y-12968000D02*
X16483000Y-13048000D01*
X16483000Y-12968000D02*
X16403000Y-13048000D01*
X16403000Y-13222000D02*
X16483000Y-13302000D01*
X16483000Y-13222000D02*
X16403000Y-13302000D01*
X16413000Y-5065000D02*
X16493000Y-5145000D01*
X16493000Y-5065000D02*
X16413000Y-5145000D01*
X16413000Y-5319000D02*
X16493000Y-5399000D01*
X16493000Y-5319000D02*
X16413000Y-5399000D01*
X16413000Y-5573000D02*
X16493000Y-5653000D01*
X16493000Y-5573000D02*
X16413000Y-5653000D01*
X16413000Y-5827000D02*
X16493000Y-5907000D01*
X16493000Y-5827000D02*
X16413000Y-5907000D01*
X16413000Y-6081000D02*
X16493000Y-6161000D01*
X16493000Y-6081000D02*
X16413000Y-6161000D01*
X16413000Y-6335000D02*
X16493000Y-6415000D01*
X16493000Y-6335000D02*
X16413000Y-6415000D01*
X16413000Y-6589000D02*
X16493000Y-6669000D01*
X16493000Y-6589000D02*
X16413000Y-6669000D01*
X16413000Y-6843000D02*
X16493000Y-6923000D01*
X16493000Y-6843000D02*
X16413000Y-6923000D01*
X16413000Y-7097000D02*
X16493000Y-7177000D01*
X16493000Y-7097000D02*
X16413000Y-7177000D01*
X16413000Y-7351000D02*
X16493000Y-7431000D01*
X16493000Y-7351000D02*
X16413000Y-7431000D01*
X16413000Y-7605000D02*
X16493000Y-7685000D01*
X16493000Y-7605000D02*
X16413000Y-7685000D01*
X16413000Y-7859000D02*
X16493000Y-7939000D01*
X16493000Y-7859000D02*
X16413000Y-7939000D01*
X17165000Y-8278500D02*
X17245000Y-8358500D01*
X17245000Y-8278500D02*
X17165000Y-8358500D01*
X17165000Y-8532500D02*
X17245000Y-8612500D01*
X17245000Y-8532500D02*
X17165000Y-8612500D01*
X17165000Y-8786500D02*
X17245000Y-8866500D01*
X17245000Y-8786500D02*
X17165000Y-8866500D01*
X17165000Y-9040500D02*
X17245000Y-9120500D01*
X17245000Y-9040500D02*
X17165000Y-9120500D01*
X17165000Y-9294500D02*
X17245000Y-9374500D01*
X17245000Y-9294500D02*
X17165000Y-9374500D01*
X17165000Y-9548500D02*
X17245000Y-9628500D01*
X17245000Y-9548500D02*
X17165000Y-9628500D01*
X17165000Y-9802500D02*
X17245000Y-9882500D01*
X17245000Y-9802500D02*
X17165000Y-9882500D01*
X17165000Y-10056500D02*
X17245000Y-10136500D01*
X17245000Y-10056500D02*
X17165000Y-10136500D01*
X17165000Y-10310500D02*
X17245000Y-10390500D01*
X17245000Y-10310500D02*
X17165000Y-10390500D01*
X17165000Y-10564500D02*
X17245000Y-10644500D01*
X17245000Y-10564500D02*
X17165000Y-10644500D01*
X17165000Y-10936000D02*
X17245000Y-11016000D01*
X17245000Y-10936000D02*
X17165000Y-11016000D01*
X17165000Y-11190000D02*
X17245000Y-11270000D01*
X17245000Y-11190000D02*
X17165000Y-11270000D01*
X17165000Y-11444000D02*
X17245000Y-11524000D01*
X17245000Y-11444000D02*
X17165000Y-11524000D01*
X17165000Y-11698000D02*
X17245000Y-11778000D01*
X17245000Y-11698000D02*
X17165000Y-11778000D01*
X17165000Y-11952000D02*
X17245000Y-12032000D01*
X17245000Y-11952000D02*
X17165000Y-12032000D01*
X17165000Y-12206000D02*
X17245000Y-12286000D01*
X17245000Y-12206000D02*
X17165000Y-12286000D01*
X17165000Y-12460000D02*
X17245000Y-12540000D01*
X17245000Y-12460000D02*
X17165000Y-12540000D01*
X17165000Y-12714000D02*
X17245000Y-12794000D01*
X17245000Y-12714000D02*
X17165000Y-12794000D01*
X17165000Y-12968000D02*
X17245000Y-13048000D01*
X17245000Y-12968000D02*
X17165000Y-13048000D01*
X17165000Y-13222000D02*
X17245000Y-13302000D01*
X17245000Y-13222000D02*
X17165000Y-13302000D01*
X17175000Y-5065000D02*
X17255000Y-5145000D01*
X17255000Y-5065000D02*
X17175000Y-5145000D01*
X17175000Y-5319000D02*
X17255000Y-5399000D01*
X17255000Y-5319000D02*
X17175000Y-5399000D01*
X17175000Y-5573000D02*
X17255000Y-5653000D01*
X17255000Y-5573000D02*
X17175000Y-5653000D01*
X17175000Y-5827000D02*
X17255000Y-5907000D01*
X17255000Y-5827000D02*
X17175000Y-5907000D01*
X17175000Y-6081000D02*
X17255000Y-6161000D01*
X17255000Y-6081000D02*
X17175000Y-6161000D01*
X17175000Y-6335000D02*
X17255000Y-6415000D01*
X17255000Y-6335000D02*
X17175000Y-6415000D01*
X17175000Y-6589000D02*
X17255000Y-6669000D01*
X17255000Y-6589000D02*
X17175000Y-6669000D01*
X17175000Y-6843000D02*
X17255000Y-6923000D01*
X17255000Y-6843000D02*
X17175000Y-6923000D01*
X17175000Y-7097000D02*
X17255000Y-7177000D01*
X17255000Y-7097000D02*
X17175000Y-7177000D01*
X17175000Y-7351000D02*
X17255000Y-7431000D01*
X17255000Y-7351000D02*
X17175000Y-7431000D01*
X17175000Y-7605000D02*
X17255000Y-7685000D01*
X17255000Y-7605000D02*
X17175000Y-7685000D01*
X17175000Y-7859000D02*
X17255000Y-7939000D01*
X17255000Y-7859000D02*
X17175000Y-7939000D01*
X17495000Y-5055000D02*
X17575000Y-5135000D01*
X17575000Y-5055000D02*
X17495000Y-5135000D01*
X17495000Y-5305000D02*
X17575000Y-5385000D01*
X17575000Y-5305000D02*
X17495000Y-5385000D01*
X17495000Y-8273500D02*
X17575000Y-8353500D01*
X17575000Y-8273500D02*
X17495000Y-8353500D01*
X17495000Y-8523500D02*
X17575000Y-8603500D01*
X17575000Y-8523500D02*
X17495000Y-8603500D01*
X17495000Y-10931000D02*
X17575000Y-11011000D01*
X17575000Y-10931000D02*
X17495000Y-11011000D01*
X17495000Y-11181000D02*
X17575000Y-11261000D01*
X17575000Y-11181000D02*
X17495000Y-11261000D01*
X15807500Y-11940000D02*
G75*
G02*
X15717500Y-11940000I-45000J0D01*
G01*
X15717500Y-11940000D02*
G75*
G02*
X15807500Y-11940000I45000J0D01*
G01*
X16061500Y-11940000D02*
G75*
G02*
X15971500Y-11940000I-45000J0D01*
G01*
X15971500Y-11940000D02*
G75*
G02*
X16061500Y-11940000I45000J0D01*
G01*
X17866200Y-4510030D02*
X17866200Y-4610030D01*
X17816200Y-4560030D02*
X17916200Y-4560030D01*
X17866200Y-4764030D02*
X17866200Y-4864030D01*
X17816200Y-4814030D02*
X17916200Y-4814030D01*
X17866200Y-5018030D02*
X17866200Y-5118030D01*
X17816200Y-5068030D02*
X17916200Y-5068030D01*
X17866200Y-5272030D02*
X17866200Y-5372030D01*
X17816200Y-5322030D02*
X17916200Y-5322030D01*
X17866200Y-5526030D02*
X17866200Y-5626030D01*
X17816200Y-5576030D02*
X17916200Y-5576030D01*
X17866200Y-5780030D02*
X17866200Y-5880030D01*
X17816200Y-5830030D02*
X17916200Y-5830030D01*
X17866200Y-6034030D02*
X17866200Y-6134030D01*
X17816200Y-6084030D02*
X17916200Y-6084030D01*
X17866200Y-6288030D02*
X17866200Y-6388030D01*
X17816200Y-6338030D02*
X17916200Y-6338030D01*
X17866200Y-6542030D02*
X17866200Y-6642030D01*
X17816200Y-6592030D02*
X17916200Y-6592030D01*
X17866200Y-6796030D02*
X17866200Y-6896030D01*
X17816200Y-6846030D02*
X17916200Y-6846030D01*
X17866200Y-7050030D02*
X17866200Y-7150030D01*
X17816200Y-7100030D02*
X17916200Y-7100030D01*
X17866200Y-7304030D02*
X17866200Y-7404030D01*
X17816200Y-7354030D02*
X17916200Y-7354030D01*
X17866200Y-7558030D02*
X17866200Y-7658030D01*
X17816200Y-7608030D02*
X17916200Y-7608030D01*
X17866200Y-7812030D02*
X17866200Y-7912030D01*
X17816200Y-7862030D02*
X17916200Y-7862030D01*
X17866200Y-8066030D02*
X17866200Y-8166030D01*
X17816200Y-8116030D02*
X17916200Y-8116030D01*
X17866200Y-8320030D02*
X17866200Y-8420030D01*
X17816200Y-8370030D02*
X17916200Y-8370030D01*
X17866200Y-8574030D02*
X17866200Y-8674030D01*
X17816200Y-8624030D02*
X17916200Y-8624030D01*
X17866200Y-8828030D02*
X17866200Y-8928030D01*
X17816200Y-8878030D02*
X17916200Y-8878030D01*
X17866200Y-9082030D02*
X17866200Y-9182030D01*
X17816200Y-9132030D02*
X17916200Y-9132030D01*
X17866200Y-9336030D02*
X17866200Y-9436030D01*
X17816200Y-9386030D02*
X17916200Y-9386030D01*
X17866200Y-9590030D02*
X17866200Y-9690030D01*
X17816200Y-9640030D02*
X17916200Y-9640030D01*
X17866200Y-9844030D02*
X17866200Y-9944030D01*
X17816200Y-9894030D02*
X17916200Y-9894030D01*
X17866200Y-10098030D02*
X17866200Y-10198030D01*
X17816200Y-10148030D02*
X17916200Y-10148030D01*
X17866200Y-10352030D02*
X17866200Y-10452030D01*
X17816200Y-10402030D02*
X17916200Y-10402030D01*
X17866200Y-10606030D02*
X17866200Y-10706030D01*
X17816200Y-10656030D02*
X17916200Y-10656030D01*
X17866200Y-10860030D02*
X17866200Y-10960030D01*
X17816200Y-10910030D02*
X17916200Y-10910030D01*
X17866200Y-11114030D02*
X17866200Y-11214030D01*
X17816200Y-11164030D02*
X17916200Y-11164030D01*
X17866200Y-11368030D02*
X17866200Y-11468030D01*
X17816200Y-11418030D02*
X17916200Y-11418030D01*
X17866200Y-11622030D02*
X17866200Y-11722030D01*
X17816200Y-11672030D02*
X17916200Y-11672030D01*
X17866200Y-11876030D02*
X17866200Y-11976030D01*
X17816200Y-11926030D02*
X17916200Y-11926030D01*
X17866200Y-12130030D02*
X17866200Y-12230030D01*
X17816200Y-12180030D02*
X17916200Y-12180030D01*
X17866200Y-12384030D02*
X17866200Y-12484030D01*
X17816200Y-12434030D02*
X17916200Y-12434030D01*
X18120200Y-4510030D02*
X18120200Y-4610030D01*
X18070200Y-4560030D02*
X18170200Y-4560030D01*
X18120200Y-4764030D02*
X18120200Y-4864030D01*
X18070200Y-4814030D02*
X18170200Y-4814030D01*
X18120200Y-5018030D02*
X18120200Y-5118030D01*
X18070200Y-5068030D02*
X18170200Y-5068030D01*
X18120200Y-5272030D02*
X18120200Y-5372030D01*
X18070200Y-5322030D02*
X18170200Y-5322030D01*
X18120200Y-5526030D02*
X18120200Y-5626030D01*
X18070200Y-5576030D02*
X18170200Y-5576030D01*
X18120200Y-5780030D02*
X18120200Y-5880030D01*
X18070200Y-5830030D02*
X18170200Y-5830030D01*
X18120200Y-6034030D02*
X18120200Y-6134030D01*
X18070200Y-6084030D02*
X18170200Y-6084030D01*
X18120200Y-6288030D02*
X18120200Y-6388030D01*
X18070200Y-6338030D02*
X18170200Y-6338030D01*
X18120200Y-6542030D02*
X18120200Y-6642030D01*
X18070200Y-6592030D02*
X18170200Y-6592030D01*
X18120200Y-6796030D02*
X18120200Y-6896030D01*
X18070200Y-6846030D02*
X18170200Y-6846030D01*
X18120200Y-7050030D02*
X18120200Y-7150030D01*
X18070200Y-7100030D02*
X18170200Y-7100030D01*
X18120200Y-7304030D02*
X18120200Y-7404030D01*
X18070200Y-7354030D02*
X18170200Y-7354030D01*
X18120200Y-7558030D02*
X18120200Y-7658030D01*
X18070200Y-7608030D02*
X18170200Y-7608030D01*
X18120200Y-7812030D02*
X18120200Y-7912030D01*
X18070200Y-7862030D02*
X18170200Y-7862030D01*
X18120200Y-8066030D02*
X18120200Y-8166030D01*
X18070200Y-8116030D02*
X18170200Y-8116030D01*
X18120200Y-8320030D02*
X18120200Y-8420030D01*
X18070200Y-8370030D02*
X18170200Y-8370030D01*
X18120200Y-8574030D02*
X18120200Y-8674030D01*
X18070200Y-8624030D02*
X18170200Y-8624030D01*
X18120200Y-8828030D02*
X18120200Y-8928030D01*
X18070200Y-8878030D02*
X18170200Y-8878030D01*
X18120200Y-9082030D02*
X18120200Y-9182030D01*
X18070200Y-9132030D02*
X18170200Y-9132030D01*
X18120200Y-9336030D02*
X18120200Y-9436030D01*
X18070200Y-9386030D02*
X18170200Y-9386030D01*
X18120200Y-9590030D02*
X18120200Y-9690030D01*
X18070200Y-9640030D02*
X18170200Y-9640030D01*
X18120200Y-9844030D02*
X18120200Y-9944030D01*
X18070200Y-9894030D02*
X18170200Y-9894030D01*
X18120200Y-10098030D02*
X18120200Y-10198030D01*
X18070200Y-10148030D02*
X18170200Y-10148030D01*
X18120200Y-10352030D02*
X18120200Y-10452030D01*
X18070200Y-10402030D02*
X18170200Y-10402030D01*
X18120200Y-10606030D02*
X18120200Y-10706030D01*
X18070200Y-10656030D02*
X18170200Y-10656030D01*
X18120200Y-10860030D02*
X18120200Y-10960030D01*
X18070200Y-10910030D02*
X18170200Y-10910030D01*
X18120200Y-11114030D02*
X18120200Y-11214030D01*
X18070200Y-11164030D02*
X18170200Y-11164030D01*
X18120200Y-11368030D02*
X18120200Y-11468030D01*
X18070200Y-11418030D02*
X18170200Y-11418030D01*
X18120200Y-11622030D02*
X18120200Y-11722030D01*
X18070200Y-11672030D02*
X18170200Y-11672030D01*
X18120200Y-11876030D02*
X18120200Y-11976030D01*
X18070200Y-11926030D02*
X18170200Y-11926030D01*
X18120200Y-12130030D02*
X18120200Y-12230030D01*
X18070200Y-12180030D02*
X18170200Y-12180030D01*
X18120200Y-12384030D02*
X18120200Y-12484030D01*
X18070200Y-12434030D02*
X18170200Y-12434030D01*
D11*
X14553474Y-13813984D02*
X14553474Y-13613984D01*
X14553474Y-13613984D02*
X14601093Y-13613984D01*
X14601093Y-13613984D02*
X14629664Y-13623508D01*
X14629664Y-13623508D02*
X14648712Y-13642555D01*
X14648712Y-13642555D02*
X14658236Y-13661603D01*
X14658236Y-13661603D02*
X14667760Y-13699698D01*
X14667760Y-13699698D02*
X14667760Y-13728269D01*
X14667760Y-13728269D02*
X14658236Y-13766365D01*
X14658236Y-13766365D02*
X14648712Y-13785412D01*
X14648712Y-13785412D02*
X14629664Y-13804460D01*
X14629664Y-13804460D02*
X14601093Y-13813984D01*
X14601093Y-13813984D02*
X14553474Y-13813984D01*
X14753474Y-13813984D02*
X14753474Y-13680650D01*
X14753474Y-13718746D02*
X14762998Y-13699698D01*
X14762998Y-13699698D02*
X14772521Y-13690174D01*
X14772521Y-13690174D02*
X14791569Y-13680650D01*
X14791569Y-13680650D02*
X14810617Y-13680650D01*
X14877283Y-13813984D02*
X14877283Y-13680650D01*
X14877283Y-13613984D02*
X14867760Y-13623508D01*
X14867760Y-13623508D02*
X14877283Y-13633031D01*
X14877283Y-13633031D02*
X14886807Y-13623508D01*
X14886807Y-13623508D02*
X14877283Y-13613984D01*
X14877283Y-13613984D02*
X14877283Y-13633031D01*
X15001093Y-13813984D02*
X14982045Y-13804460D01*
X14982045Y-13804460D02*
X14972521Y-13785412D01*
X14972521Y-13785412D02*
X14972521Y-13613984D01*
X15105855Y-13813984D02*
X15086807Y-13804460D01*
X15086807Y-13804460D02*
X15077283Y-13785412D01*
X15077283Y-13785412D02*
X15077283Y-13613984D01*
X15334426Y-13813984D02*
X15334426Y-13613984D01*
X15334426Y-13613984D02*
X15401093Y-13756841D01*
X15401093Y-13756841D02*
X15467760Y-13613984D01*
X15467760Y-13613984D02*
X15467760Y-13813984D01*
X15648712Y-13813984D02*
X15648712Y-13709222D01*
X15648712Y-13709222D02*
X15639188Y-13690174D01*
X15639188Y-13690174D02*
X15620141Y-13680650D01*
X15620141Y-13680650D02*
X15582045Y-13680650D01*
X15582045Y-13680650D02*
X15562998Y-13690174D01*
X15648712Y-13804460D02*
X15629664Y-13813984D01*
X15629664Y-13813984D02*
X15582045Y-13813984D01*
X15582045Y-13813984D02*
X15562998Y-13804460D01*
X15562998Y-13804460D02*
X15553474Y-13785412D01*
X15553474Y-13785412D02*
X15553474Y-13766365D01*
X15553474Y-13766365D02*
X15562998Y-13747317D01*
X15562998Y-13747317D02*
X15582045Y-13737793D01*
X15582045Y-13737793D02*
X15629664Y-13737793D01*
X15629664Y-13737793D02*
X15648712Y-13728269D01*
X15743950Y-13680650D02*
X15743950Y-13880650D01*
X15743950Y-13690174D02*
X15762998Y-13680650D01*
X15762998Y-13680650D02*
X15801093Y-13680650D01*
X15801093Y-13680650D02*
X15820141Y-13690174D01*
X15820141Y-13690174D02*
X15829664Y-13699698D01*
X15829664Y-13699698D02*
X15839188Y-13718746D01*
X15839188Y-13718746D02*
X15839188Y-13775888D01*
X15839188Y-13775888D02*
X15829664Y-13794936D01*
X15829664Y-13794936D02*
X15820141Y-13804460D01*
X15820141Y-13804460D02*
X15801093Y-13813984D01*
X15801093Y-13813984D02*
X15762998Y-13813984D01*
X15762998Y-13813984D02*
X15743950Y-13804460D01*
X15924902Y-13794936D02*
X15934426Y-13804460D01*
X15934426Y-13804460D02*
X15924902Y-13813984D01*
X15924902Y-13813984D02*
X15915379Y-13804460D01*
X15915379Y-13804460D02*
X15924902Y-13794936D01*
X15924902Y-13794936D02*
X15924902Y-13813984D01*
X15924902Y-13690174D02*
X15934426Y-13699698D01*
X15934426Y-13699698D02*
X15924902Y-13709222D01*
X15924902Y-13709222D02*
X15915379Y-13699698D01*
X15915379Y-13699698D02*
X15924902Y-13690174D01*
X15924902Y-13690174D02*
X15924902Y-13709222D01*
D12*
X14212697Y-14102500D02*
X14292697Y-14182500D01*
X14292697Y-14102500D02*
X14212697Y-14182500D01*
D11*
X14591569Y-14033984D02*
X14610617Y-14033984D01*
X14610617Y-14033984D02*
X14629664Y-14043508D01*
X14629664Y-14043508D02*
X14639188Y-14053031D01*
X14639188Y-14053031D02*
X14648712Y-14072079D01*
X14648712Y-14072079D02*
X14658236Y-14110174D01*
X14658236Y-14110174D02*
X14658236Y-14157793D01*
X14658236Y-14157793D02*
X14648712Y-14195888D01*
X14648712Y-14195888D02*
X14639188Y-14214936D01*
X14639188Y-14214936D02*
X14629664Y-14224460D01*
X14629664Y-14224460D02*
X14610617Y-14233984D01*
X14610617Y-14233984D02*
X14591569Y-14233984D01*
X14591569Y-14233984D02*
X14572521Y-14224460D01*
X14572521Y-14224460D02*
X14562998Y-14214936D01*
X14562998Y-14214936D02*
X14553474Y-14195888D01*
X14553474Y-14195888D02*
X14543950Y-14157793D01*
X14543950Y-14157793D02*
X14543950Y-14110174D01*
X14543950Y-14110174D02*
X14553474Y-14072079D01*
X14553474Y-14072079D02*
X14562998Y-14053031D01*
X14562998Y-14053031D02*
X14572521Y-14043508D01*
X14572521Y-14043508D02*
X14591569Y-14033984D01*
X14743950Y-14214936D02*
X14753474Y-14224460D01*
X14753474Y-14224460D02*
X14743950Y-14233984D01*
X14743950Y-14233984D02*
X14734426Y-14224460D01*
X14734426Y-14224460D02*
X14743950Y-14214936D01*
X14743950Y-14214936D02*
X14743950Y-14233984D01*
X14867760Y-14119698D02*
X14848712Y-14110174D01*
X14848712Y-14110174D02*
X14839188Y-14100650D01*
X14839188Y-14100650D02*
X14829664Y-14081603D01*
X14829664Y-14081603D02*
X14829664Y-14072079D01*
X14829664Y-14072079D02*
X14839188Y-14053031D01*
X14839188Y-14053031D02*
X14848712Y-14043508D01*
X14848712Y-14043508D02*
X14867760Y-14033984D01*
X14867760Y-14033984D02*
X14905855Y-14033984D01*
X14905855Y-14033984D02*
X14924902Y-14043508D01*
X14924902Y-14043508D02*
X14934426Y-14053031D01*
X14934426Y-14053031D02*
X14943950Y-14072079D01*
X14943950Y-14072079D02*
X14943950Y-14081603D01*
X14943950Y-14081603D02*
X14934426Y-14100650D01*
X14934426Y-14100650D02*
X14924902Y-14110174D01*
X14924902Y-14110174D02*
X14905855Y-14119698D01*
X14905855Y-14119698D02*
X14867760Y-14119698D01*
X14867760Y-14119698D02*
X14848712Y-14129222D01*
X14848712Y-14129222D02*
X14839188Y-14138746D01*
X14839188Y-14138746D02*
X14829664Y-14157793D01*
X14829664Y-14157793D02*
X14829664Y-14195888D01*
X14829664Y-14195888D02*
X14839188Y-14214936D01*
X14839188Y-14214936D02*
X14848712Y-14224460D01*
X14848712Y-14224460D02*
X14867760Y-14233984D01*
X14867760Y-14233984D02*
X14905855Y-14233984D01*
X14905855Y-14233984D02*
X14924902Y-14224460D01*
X14924902Y-14224460D02*
X14934426Y-14214936D01*
X14934426Y-14214936D02*
X14943950Y-14195888D01*
X14943950Y-14195888D02*
X14943950Y-14157793D01*
X14943950Y-14157793D02*
X14934426Y-14138746D01*
X14934426Y-14138746D02*
X14924902Y-14129222D01*
X14924902Y-14129222D02*
X14905855Y-14119698D01*
X15067760Y-14033984D02*
X15086807Y-14033984D01*
X15086807Y-14033984D02*
X15105855Y-14043508D01*
X15105855Y-14043508D02*
X15115379Y-14053031D01*
X15115379Y-14053031D02*
X15124902Y-14072079D01*
X15124902Y-14072079D02*
X15134426Y-14110174D01*
X15134426Y-14110174D02*
X15134426Y-14157793D01*
X15134426Y-14157793D02*
X15124902Y-14195888D01*
X15124902Y-14195888D02*
X15115379Y-14214936D01*
X15115379Y-14214936D02*
X15105855Y-14224460D01*
X15105855Y-14224460D02*
X15086807Y-14233984D01*
X15086807Y-14233984D02*
X15067760Y-14233984D01*
X15067760Y-14233984D02*
X15048712Y-14224460D01*
X15048712Y-14224460D02*
X15039188Y-14214936D01*
X15039188Y-14214936D02*
X15029664Y-14195888D01*
X15029664Y-14195888D02*
X15020141Y-14157793D01*
X15020141Y-14157793D02*
X15020141Y-14110174D01*
X15020141Y-14110174D02*
X15029664Y-14072079D01*
X15029664Y-14072079D02*
X15039188Y-14053031D01*
X15039188Y-14053031D02*
X15048712Y-14043508D01*
X15048712Y-14043508D02*
X15067760Y-14033984D01*
X15258236Y-14033984D02*
X15277283Y-14033984D01*
X15277283Y-14033984D02*
X15296331Y-14043508D01*
X15296331Y-14043508D02*
X15305855Y-14053031D01*
X15305855Y-14053031D02*
X15315379Y-14072079D01*
X15315379Y-14072079D02*
X15324902Y-14110174D01*
X15324902Y-14110174D02*
X15324902Y-14157793D01*
X15324902Y-14157793D02*
X15315379Y-14195888D01*
X15315379Y-14195888D02*
X15305855Y-14214936D01*
X15305855Y-14214936D02*
X15296331Y-14224460D01*
X15296331Y-14224460D02*
X15277283Y-14233984D01*
X15277283Y-14233984D02*
X15258236Y-14233984D01*
X15258236Y-14233984D02*
X15239188Y-14224460D01*
X15239188Y-14224460D02*
X15229664Y-14214936D01*
X15229664Y-14214936D02*
X15220141Y-14195888D01*
X15220141Y-14195888D02*
X15210617Y-14157793D01*
X15210617Y-14157793D02*
X15210617Y-14110174D01*
X15210617Y-14110174D02*
X15220141Y-14072079D01*
X15220141Y-14072079D02*
X15229664Y-14053031D01*
X15229664Y-14053031D02*
X15239188Y-14043508D01*
X15239188Y-14043508D02*
X15258236Y-14033984D01*
X15410617Y-14233984D02*
X15410617Y-14100650D01*
X15410617Y-14119698D02*
X15420141Y-14110174D01*
X15420141Y-14110174D02*
X15439188Y-14100650D01*
X15439188Y-14100650D02*
X15467760Y-14100650D01*
X15467760Y-14100650D02*
X15486807Y-14110174D01*
X15486807Y-14110174D02*
X15496331Y-14129222D01*
X15496331Y-14129222D02*
X15496331Y-14233984D01*
X15496331Y-14129222D02*
X15505855Y-14110174D01*
X15505855Y-14110174D02*
X15524902Y-14100650D01*
X15524902Y-14100650D02*
X15553474Y-14100650D01*
X15553474Y-14100650D02*
X15572522Y-14110174D01*
X15572522Y-14110174D02*
X15582045Y-14129222D01*
X15582045Y-14129222D02*
X15582045Y-14233984D01*
X15677283Y-14233984D02*
X15677283Y-14100650D01*
X15677283Y-14119698D02*
X15686807Y-14110174D01*
X15686807Y-14110174D02*
X15705855Y-14100650D01*
X15705855Y-14100650D02*
X15734426Y-14100650D01*
X15734426Y-14100650D02*
X15753474Y-14110174D01*
X15753474Y-14110174D02*
X15762998Y-14129222D01*
X15762998Y-14129222D02*
X15762998Y-14233984D01*
X15762998Y-14129222D02*
X15772522Y-14110174D01*
X15772522Y-14110174D02*
X15791569Y-14100650D01*
X15791569Y-14100650D02*
X15820141Y-14100650D01*
X15820141Y-14100650D02*
X15839188Y-14110174D01*
X15839188Y-14110174D02*
X15848712Y-14129222D01*
X15848712Y-14129222D02*
X15848712Y-14233984D01*
X16239188Y-14024460D02*
X16067760Y-14281603D01*
X16496331Y-14033984D02*
X16515379Y-14033984D01*
X16515379Y-14033984D02*
X16534426Y-14043508D01*
X16534426Y-14043508D02*
X16543950Y-14053031D01*
X16543950Y-14053031D02*
X16553474Y-14072079D01*
X16553474Y-14072079D02*
X16562998Y-14110174D01*
X16562998Y-14110174D02*
X16562998Y-14157793D01*
X16562998Y-14157793D02*
X16553474Y-14195888D01*
X16553474Y-14195888D02*
X16543950Y-14214936D01*
X16543950Y-14214936D02*
X16534426Y-14224460D01*
X16534426Y-14224460D02*
X16515379Y-14233984D01*
X16515379Y-14233984D02*
X16496331Y-14233984D01*
X16496331Y-14233984D02*
X16477284Y-14224460D01*
X16477284Y-14224460D02*
X16467760Y-14214936D01*
X16467760Y-14214936D02*
X16458236Y-14195888D01*
X16458236Y-14195888D02*
X16448712Y-14157793D01*
X16448712Y-14157793D02*
X16448712Y-14110174D01*
X16448712Y-14110174D02*
X16458236Y-14072079D01*
X16458236Y-14072079D02*
X16467760Y-14053031D01*
X16467760Y-14053031D02*
X16477284Y-14043508D01*
X16477284Y-14043508D02*
X16496331Y-14033984D01*
X16648712Y-14214936D02*
X16658236Y-14224460D01*
X16658236Y-14224460D02*
X16648712Y-14233984D01*
X16648712Y-14233984D02*
X16639188Y-14224460D01*
X16639188Y-14224460D02*
X16648712Y-14214936D01*
X16648712Y-14214936D02*
X16648712Y-14233984D01*
X16782046Y-14033984D02*
X16801093Y-14033984D01*
X16801093Y-14033984D02*
X16820141Y-14043508D01*
X16820141Y-14043508D02*
X16829665Y-14053031D01*
X16829665Y-14053031D02*
X16839188Y-14072079D01*
X16839188Y-14072079D02*
X16848712Y-14110174D01*
X16848712Y-14110174D02*
X16848712Y-14157793D01*
X16848712Y-14157793D02*
X16839188Y-14195888D01*
X16839188Y-14195888D02*
X16829665Y-14214936D01*
X16829665Y-14214936D02*
X16820141Y-14224460D01*
X16820141Y-14224460D02*
X16801093Y-14233984D01*
X16801093Y-14233984D02*
X16782046Y-14233984D01*
X16782046Y-14233984D02*
X16762998Y-14224460D01*
X16762998Y-14224460D02*
X16753474Y-14214936D01*
X16753474Y-14214936D02*
X16743950Y-14195888D01*
X16743950Y-14195888D02*
X16734426Y-14157793D01*
X16734426Y-14157793D02*
X16734426Y-14110174D01*
X16734426Y-14110174D02*
X16743950Y-14072079D01*
X16743950Y-14072079D02*
X16753474Y-14053031D01*
X16753474Y-14053031D02*
X16762998Y-14043508D01*
X16762998Y-14043508D02*
X16782046Y-14033984D01*
X16915379Y-14033984D02*
X17039188Y-14033984D01*
X17039188Y-14033984D02*
X16972522Y-14110174D01*
X16972522Y-14110174D02*
X17001093Y-14110174D01*
X17001093Y-14110174D02*
X17020141Y-14119698D01*
X17020141Y-14119698D02*
X17029665Y-14129222D01*
X17029665Y-14129222D02*
X17039188Y-14148269D01*
X17039188Y-14148269D02*
X17039188Y-14195888D01*
X17039188Y-14195888D02*
X17029665Y-14214936D01*
X17029665Y-14214936D02*
X17020141Y-14224460D01*
X17020141Y-14224460D02*
X17001093Y-14233984D01*
X17001093Y-14233984D02*
X16943950Y-14233984D01*
X16943950Y-14233984D02*
X16924903Y-14224460D01*
X16924903Y-14224460D02*
X16915379Y-14214936D01*
X17229665Y-14233984D02*
X17115379Y-14233984D01*
X17172522Y-14233984D02*
X17172522Y-14033984D01*
X17172522Y-14033984D02*
X17153474Y-14062555D01*
X17153474Y-14062555D02*
X17134427Y-14081603D01*
X17134427Y-14081603D02*
X17115379Y-14091127D01*
X17410617Y-14033984D02*
X17315379Y-14033984D01*
X17315379Y-14033984D02*
X17305855Y-14129222D01*
X17305855Y-14129222D02*
X17315379Y-14119698D01*
X17315379Y-14119698D02*
X17334427Y-14110174D01*
X17334427Y-14110174D02*
X17382046Y-14110174D01*
X17382046Y-14110174D02*
X17401093Y-14119698D01*
X17401093Y-14119698D02*
X17410617Y-14129222D01*
X17410617Y-14129222D02*
X17420141Y-14148269D01*
X17420141Y-14148269D02*
X17420141Y-14195888D01*
X17420141Y-14195888D02*
X17410617Y-14214936D01*
X17410617Y-14214936D02*
X17401093Y-14224460D01*
X17401093Y-14224460D02*
X17382046Y-14233984D01*
X17382046Y-14233984D02*
X17334427Y-14233984D01*
X17334427Y-14233984D02*
X17315379Y-14224460D01*
X17315379Y-14224460D02*
X17305855Y-14214936D01*
X17496331Y-14033984D02*
X17496331Y-14072079D01*
X17572522Y-14033984D02*
X17572522Y-14072079D01*
X17867760Y-14310174D02*
X17858236Y-14300650D01*
X17858236Y-14300650D02*
X17839189Y-14272079D01*
X17839189Y-14272079D02*
X17829665Y-14253031D01*
X17829665Y-14253031D02*
X17820141Y-14224460D01*
X17820141Y-14224460D02*
X17810617Y-14176841D01*
X17810617Y-14176841D02*
X17810617Y-14138746D01*
X17810617Y-14138746D02*
X17820141Y-14091127D01*
X17820141Y-14091127D02*
X17829665Y-14062555D01*
X17829665Y-14062555D02*
X17839189Y-14043508D01*
X17839189Y-14043508D02*
X17858236Y-14014936D01*
X17858236Y-14014936D02*
X17867760Y-14005412D01*
X18048712Y-14233984D02*
X17934427Y-14233984D01*
X17991569Y-14233984D02*
X17991569Y-14033984D01*
X17991569Y-14033984D02*
X17972522Y-14062555D01*
X17972522Y-14062555D02*
X17953474Y-14081603D01*
X17953474Y-14081603D02*
X17934427Y-14091127D01*
X18220141Y-14100650D02*
X18220141Y-14233984D01*
X18172522Y-14024460D02*
X18124903Y-14167317D01*
X18124903Y-14167317D02*
X18248712Y-14167317D01*
X18410617Y-14033984D02*
X18372522Y-14033984D01*
X18372522Y-14033984D02*
X18353474Y-14043508D01*
X18353474Y-14043508D02*
X18343950Y-14053031D01*
X18343950Y-14053031D02*
X18324903Y-14081603D01*
X18324903Y-14081603D02*
X18315379Y-14119698D01*
X18315379Y-14119698D02*
X18315379Y-14195888D01*
X18315379Y-14195888D02*
X18324903Y-14214936D01*
X18324903Y-14214936D02*
X18334427Y-14224460D01*
X18334427Y-14224460D02*
X18353474Y-14233984D01*
X18353474Y-14233984D02*
X18391570Y-14233984D01*
X18391570Y-14233984D02*
X18410617Y-14224460D01*
X18410617Y-14224460D02*
X18420141Y-14214936D01*
X18420141Y-14214936D02*
X18429665Y-14195888D01*
X18429665Y-14195888D02*
X18429665Y-14148269D01*
X18429665Y-14148269D02*
X18420141Y-14129222D01*
X18420141Y-14129222D02*
X18410617Y-14119698D01*
X18410617Y-14119698D02*
X18391570Y-14110174D01*
X18391570Y-14110174D02*
X18353474Y-14110174D01*
X18353474Y-14110174D02*
X18334427Y-14119698D01*
X18334427Y-14119698D02*
X18324903Y-14129222D01*
X18324903Y-14129222D02*
X18315379Y-14148269D01*
X18667760Y-14233984D02*
X18667760Y-14033984D01*
X18753474Y-14233984D02*
X18753474Y-14129222D01*
X18753474Y-14129222D02*
X18743951Y-14110174D01*
X18743951Y-14110174D02*
X18724903Y-14100650D01*
X18724903Y-14100650D02*
X18696331Y-14100650D01*
X18696331Y-14100650D02*
X18677284Y-14110174D01*
X18677284Y-14110174D02*
X18667760Y-14119698D01*
X18877284Y-14233984D02*
X18858236Y-14224460D01*
X18858236Y-14224460D02*
X18848712Y-14214936D01*
X18848712Y-14214936D02*
X18839189Y-14195888D01*
X18839189Y-14195888D02*
X18839189Y-14138746D01*
X18839189Y-14138746D02*
X18848712Y-14119698D01*
X18848712Y-14119698D02*
X18858236Y-14110174D01*
X18858236Y-14110174D02*
X18877284Y-14100650D01*
X18877284Y-14100650D02*
X18905855Y-14100650D01*
X18905855Y-14100650D02*
X18924903Y-14110174D01*
X18924903Y-14110174D02*
X18934427Y-14119698D01*
X18934427Y-14119698D02*
X18943951Y-14138746D01*
X18943951Y-14138746D02*
X18943951Y-14195888D01*
X18943951Y-14195888D02*
X18934427Y-14214936D01*
X18934427Y-14214936D02*
X18924903Y-14224460D01*
X18924903Y-14224460D02*
X18905855Y-14233984D01*
X18905855Y-14233984D02*
X18877284Y-14233984D01*
X19058236Y-14233984D02*
X19039189Y-14224460D01*
X19039189Y-14224460D02*
X19029665Y-14205412D01*
X19029665Y-14205412D02*
X19029665Y-14033984D01*
X19210617Y-14224460D02*
X19191570Y-14233984D01*
X19191570Y-14233984D02*
X19153474Y-14233984D01*
X19153474Y-14233984D02*
X19134427Y-14224460D01*
X19134427Y-14224460D02*
X19124903Y-14205412D01*
X19124903Y-14205412D02*
X19124903Y-14129222D01*
X19124903Y-14129222D02*
X19134427Y-14110174D01*
X19134427Y-14110174D02*
X19153474Y-14100650D01*
X19153474Y-14100650D02*
X19191570Y-14100650D01*
X19191570Y-14100650D02*
X19210617Y-14110174D01*
X19210617Y-14110174D02*
X19220141Y-14129222D01*
X19220141Y-14129222D02*
X19220141Y-14148269D01*
X19220141Y-14148269D02*
X19124903Y-14167317D01*
X19296332Y-14224460D02*
X19315379Y-14233984D01*
X19315379Y-14233984D02*
X19353474Y-14233984D01*
X19353474Y-14233984D02*
X19372522Y-14224460D01*
X19372522Y-14224460D02*
X19382046Y-14205412D01*
X19382046Y-14205412D02*
X19382046Y-14195888D01*
X19382046Y-14195888D02*
X19372522Y-14176841D01*
X19372522Y-14176841D02*
X19353474Y-14167317D01*
X19353474Y-14167317D02*
X19324903Y-14167317D01*
X19324903Y-14167317D02*
X19305855Y-14157793D01*
X19305855Y-14157793D02*
X19296332Y-14138746D01*
X19296332Y-14138746D02*
X19296332Y-14129222D01*
X19296332Y-14129222D02*
X19305855Y-14110174D01*
X19305855Y-14110174D02*
X19324903Y-14100650D01*
X19324903Y-14100650D02*
X19353474Y-14100650D01*
X19353474Y-14100650D02*
X19372522Y-14110174D01*
X19448713Y-14310174D02*
X19458236Y-14300650D01*
X19458236Y-14300650D02*
X19477284Y-14272079D01*
X19477284Y-14272079D02*
X19486808Y-14253031D01*
X19486808Y-14253031D02*
X19496332Y-14224460D01*
X19496332Y-14224460D02*
X19505855Y-14176841D01*
X19505855Y-14176841D02*
X19505855Y-14138746D01*
X19505855Y-14138746D02*
X19496332Y-14091127D01*
X19496332Y-14091127D02*
X19486808Y-14062555D01*
X19486808Y-14062555D02*
X19477284Y-14043508D01*
X19477284Y-14043508D02*
X19458236Y-14014936D01*
X19458236Y-14014936D02*
X19448713Y-14005412D01*
D12*
X14292697Y-14406500D02*
G75*
G02*
X14202697Y-14406500I-45000J0D01*
G01*
X14202697Y-14406500D02*
G75*
G02*
X14292697Y-14406500I45000J0D01*
G01*
D11*
X14591569Y-14297984D02*
X14610617Y-14297984D01*
X14610617Y-14297984D02*
X14629664Y-14307508D01*
X14629664Y-14307508D02*
X14639188Y-14317031D01*
X14639188Y-14317031D02*
X14648712Y-14336079D01*
X14648712Y-14336079D02*
X14658236Y-14374174D01*
X14658236Y-14374174D02*
X14658236Y-14421793D01*
X14658236Y-14421793D02*
X14648712Y-14459888D01*
X14648712Y-14459888D02*
X14639188Y-14478936D01*
X14639188Y-14478936D02*
X14629664Y-14488460D01*
X14629664Y-14488460D02*
X14610617Y-14497984D01*
X14610617Y-14497984D02*
X14591569Y-14497984D01*
X14591569Y-14497984D02*
X14572521Y-14488460D01*
X14572521Y-14488460D02*
X14562998Y-14478936D01*
X14562998Y-14478936D02*
X14553474Y-14459888D01*
X14553474Y-14459888D02*
X14543950Y-14421793D01*
X14543950Y-14421793D02*
X14543950Y-14374174D01*
X14543950Y-14374174D02*
X14553474Y-14336079D01*
X14553474Y-14336079D02*
X14562998Y-14317031D01*
X14562998Y-14317031D02*
X14572521Y-14307508D01*
X14572521Y-14307508D02*
X14591569Y-14297984D01*
X14743950Y-14478936D02*
X14753474Y-14488460D01*
X14753474Y-14488460D02*
X14743950Y-14497984D01*
X14743950Y-14497984D02*
X14734426Y-14488460D01*
X14734426Y-14488460D02*
X14743950Y-14478936D01*
X14743950Y-14478936D02*
X14743950Y-14497984D01*
X14848712Y-14497984D02*
X14886807Y-14497984D01*
X14886807Y-14497984D02*
X14905855Y-14488460D01*
X14905855Y-14488460D02*
X14915379Y-14478936D01*
X14915379Y-14478936D02*
X14934426Y-14450365D01*
X14934426Y-14450365D02*
X14943950Y-14412269D01*
X14943950Y-14412269D02*
X14943950Y-14336079D01*
X14943950Y-14336079D02*
X14934426Y-14317031D01*
X14934426Y-14317031D02*
X14924902Y-14307508D01*
X14924902Y-14307508D02*
X14905855Y-14297984D01*
X14905855Y-14297984D02*
X14867760Y-14297984D01*
X14867760Y-14297984D02*
X14848712Y-14307508D01*
X14848712Y-14307508D02*
X14839188Y-14317031D01*
X14839188Y-14317031D02*
X14829664Y-14336079D01*
X14829664Y-14336079D02*
X14829664Y-14383698D01*
X14829664Y-14383698D02*
X14839188Y-14402746D01*
X14839188Y-14402746D02*
X14848712Y-14412269D01*
X14848712Y-14412269D02*
X14867760Y-14421793D01*
X14867760Y-14421793D02*
X14905855Y-14421793D01*
X14905855Y-14421793D02*
X14924902Y-14412269D01*
X14924902Y-14412269D02*
X14934426Y-14402746D01*
X14934426Y-14402746D02*
X14943950Y-14383698D01*
X15067760Y-14297984D02*
X15086807Y-14297984D01*
X15086807Y-14297984D02*
X15105855Y-14307508D01*
X15105855Y-14307508D02*
X15115379Y-14317031D01*
X15115379Y-14317031D02*
X15124902Y-14336079D01*
X15124902Y-14336079D02*
X15134426Y-14374174D01*
X15134426Y-14374174D02*
X15134426Y-14421793D01*
X15134426Y-14421793D02*
X15124902Y-14459888D01*
X15124902Y-14459888D02*
X15115379Y-14478936D01*
X15115379Y-14478936D02*
X15105855Y-14488460D01*
X15105855Y-14488460D02*
X15086807Y-14497984D01*
X15086807Y-14497984D02*
X15067760Y-14497984D01*
X15067760Y-14497984D02*
X15048712Y-14488460D01*
X15048712Y-14488460D02*
X15039188Y-14478936D01*
X15039188Y-14478936D02*
X15029664Y-14459888D01*
X15029664Y-14459888D02*
X15020141Y-14421793D01*
X15020141Y-14421793D02*
X15020141Y-14374174D01*
X15020141Y-14374174D02*
X15029664Y-14336079D01*
X15029664Y-14336079D02*
X15039188Y-14317031D01*
X15039188Y-14317031D02*
X15048712Y-14307508D01*
X15048712Y-14307508D02*
X15067760Y-14297984D01*
X15258236Y-14297984D02*
X15277283Y-14297984D01*
X15277283Y-14297984D02*
X15296331Y-14307508D01*
X15296331Y-14307508D02*
X15305855Y-14317031D01*
X15305855Y-14317031D02*
X15315379Y-14336079D01*
X15315379Y-14336079D02*
X15324902Y-14374174D01*
X15324902Y-14374174D02*
X15324902Y-14421793D01*
X15324902Y-14421793D02*
X15315379Y-14459888D01*
X15315379Y-14459888D02*
X15305855Y-14478936D01*
X15305855Y-14478936D02*
X15296331Y-14488460D01*
X15296331Y-14488460D02*
X15277283Y-14497984D01*
X15277283Y-14497984D02*
X15258236Y-14497984D01*
X15258236Y-14497984D02*
X15239188Y-14488460D01*
X15239188Y-14488460D02*
X15229664Y-14478936D01*
X15229664Y-14478936D02*
X15220141Y-14459888D01*
X15220141Y-14459888D02*
X15210617Y-14421793D01*
X15210617Y-14421793D02*
X15210617Y-14374174D01*
X15210617Y-14374174D02*
X15220141Y-14336079D01*
X15220141Y-14336079D02*
X15229664Y-14317031D01*
X15229664Y-14317031D02*
X15239188Y-14307508D01*
X15239188Y-14307508D02*
X15258236Y-14297984D01*
X15410617Y-14497984D02*
X15410617Y-14364650D01*
X15410617Y-14383698D02*
X15420141Y-14374174D01*
X15420141Y-14374174D02*
X15439188Y-14364650D01*
X15439188Y-14364650D02*
X15467760Y-14364650D01*
X15467760Y-14364650D02*
X15486807Y-14374174D01*
X15486807Y-14374174D02*
X15496331Y-14393222D01*
X15496331Y-14393222D02*
X15496331Y-14497984D01*
X15496331Y-14393222D02*
X15505855Y-14374174D01*
X15505855Y-14374174D02*
X15524902Y-14364650D01*
X15524902Y-14364650D02*
X15553474Y-14364650D01*
X15553474Y-14364650D02*
X15572522Y-14374174D01*
X15572522Y-14374174D02*
X15582045Y-14393222D01*
X15582045Y-14393222D02*
X15582045Y-14497984D01*
X15677283Y-14497984D02*
X15677283Y-14364650D01*
X15677283Y-14383698D02*
X15686807Y-14374174D01*
X15686807Y-14374174D02*
X15705855Y-14364650D01*
X15705855Y-14364650D02*
X15734426Y-14364650D01*
X15734426Y-14364650D02*
X15753474Y-14374174D01*
X15753474Y-14374174D02*
X15762998Y-14393222D01*
X15762998Y-14393222D02*
X15762998Y-14497984D01*
X15762998Y-14393222D02*
X15772522Y-14374174D01*
X15772522Y-14374174D02*
X15791569Y-14364650D01*
X15791569Y-14364650D02*
X15820141Y-14364650D01*
X15820141Y-14364650D02*
X15839188Y-14374174D01*
X15839188Y-14374174D02*
X15848712Y-14393222D01*
X15848712Y-14393222D02*
X15848712Y-14497984D01*
X16239188Y-14288460D02*
X16067760Y-14545603D01*
X16496331Y-14297984D02*
X16515379Y-14297984D01*
X16515379Y-14297984D02*
X16534426Y-14307508D01*
X16534426Y-14307508D02*
X16543950Y-14317031D01*
X16543950Y-14317031D02*
X16553474Y-14336079D01*
X16553474Y-14336079D02*
X16562998Y-14374174D01*
X16562998Y-14374174D02*
X16562998Y-14421793D01*
X16562998Y-14421793D02*
X16553474Y-14459888D01*
X16553474Y-14459888D02*
X16543950Y-14478936D01*
X16543950Y-14478936D02*
X16534426Y-14488460D01*
X16534426Y-14488460D02*
X16515379Y-14497984D01*
X16515379Y-14497984D02*
X16496331Y-14497984D01*
X16496331Y-14497984D02*
X16477284Y-14488460D01*
X16477284Y-14488460D02*
X16467760Y-14478936D01*
X16467760Y-14478936D02*
X16458236Y-14459888D01*
X16458236Y-14459888D02*
X16448712Y-14421793D01*
X16448712Y-14421793D02*
X16448712Y-14374174D01*
X16448712Y-14374174D02*
X16458236Y-14336079D01*
X16458236Y-14336079D02*
X16467760Y-14317031D01*
X16467760Y-14317031D02*
X16477284Y-14307508D01*
X16477284Y-14307508D02*
X16496331Y-14297984D01*
X16648712Y-14478936D02*
X16658236Y-14488460D01*
X16658236Y-14488460D02*
X16648712Y-14497984D01*
X16648712Y-14497984D02*
X16639188Y-14488460D01*
X16639188Y-14488460D02*
X16648712Y-14478936D01*
X16648712Y-14478936D02*
X16648712Y-14497984D01*
X16782046Y-14297984D02*
X16801093Y-14297984D01*
X16801093Y-14297984D02*
X16820141Y-14307508D01*
X16820141Y-14307508D02*
X16829665Y-14317031D01*
X16829665Y-14317031D02*
X16839188Y-14336079D01*
X16839188Y-14336079D02*
X16848712Y-14374174D01*
X16848712Y-14374174D02*
X16848712Y-14421793D01*
X16848712Y-14421793D02*
X16839188Y-14459888D01*
X16839188Y-14459888D02*
X16829665Y-14478936D01*
X16829665Y-14478936D02*
X16820141Y-14488460D01*
X16820141Y-14488460D02*
X16801093Y-14497984D01*
X16801093Y-14497984D02*
X16782046Y-14497984D01*
X16782046Y-14497984D02*
X16762998Y-14488460D01*
X16762998Y-14488460D02*
X16753474Y-14478936D01*
X16753474Y-14478936D02*
X16743950Y-14459888D01*
X16743950Y-14459888D02*
X16734426Y-14421793D01*
X16734426Y-14421793D02*
X16734426Y-14374174D01*
X16734426Y-14374174D02*
X16743950Y-14336079D01*
X16743950Y-14336079D02*
X16753474Y-14317031D01*
X16753474Y-14317031D02*
X16762998Y-14307508D01*
X16762998Y-14307508D02*
X16782046Y-14297984D01*
X16915379Y-14297984D02*
X17039188Y-14297984D01*
X17039188Y-14297984D02*
X16972522Y-14374174D01*
X16972522Y-14374174D02*
X17001093Y-14374174D01*
X17001093Y-14374174D02*
X17020141Y-14383698D01*
X17020141Y-14383698D02*
X17029665Y-14393222D01*
X17029665Y-14393222D02*
X17039188Y-14412269D01*
X17039188Y-14412269D02*
X17039188Y-14459888D01*
X17039188Y-14459888D02*
X17029665Y-14478936D01*
X17029665Y-14478936D02*
X17020141Y-14488460D01*
X17020141Y-14488460D02*
X17001093Y-14497984D01*
X17001093Y-14497984D02*
X16943950Y-14497984D01*
X16943950Y-14497984D02*
X16924903Y-14488460D01*
X16924903Y-14488460D02*
X16915379Y-14478936D01*
X17220141Y-14297984D02*
X17124903Y-14297984D01*
X17124903Y-14297984D02*
X17115379Y-14393222D01*
X17115379Y-14393222D02*
X17124903Y-14383698D01*
X17124903Y-14383698D02*
X17143950Y-14374174D01*
X17143950Y-14374174D02*
X17191569Y-14374174D01*
X17191569Y-14374174D02*
X17210617Y-14383698D01*
X17210617Y-14383698D02*
X17220141Y-14393222D01*
X17220141Y-14393222D02*
X17229665Y-14412269D01*
X17229665Y-14412269D02*
X17229665Y-14459888D01*
X17229665Y-14459888D02*
X17220141Y-14478936D01*
X17220141Y-14478936D02*
X17210617Y-14488460D01*
X17210617Y-14488460D02*
X17191569Y-14497984D01*
X17191569Y-14497984D02*
X17143950Y-14497984D01*
X17143950Y-14497984D02*
X17124903Y-14488460D01*
X17124903Y-14488460D02*
X17115379Y-14478936D01*
X17401093Y-14364650D02*
X17401093Y-14497984D01*
X17353474Y-14288460D02*
X17305855Y-14431317D01*
X17305855Y-14431317D02*
X17429665Y-14431317D01*
X17496331Y-14297984D02*
X17496331Y-14336079D01*
X17572522Y-14297984D02*
X17572522Y-14336079D01*
X17867760Y-14574174D02*
X17858236Y-14564650D01*
X17858236Y-14564650D02*
X17839189Y-14536079D01*
X17839189Y-14536079D02*
X17829665Y-14517031D01*
X17829665Y-14517031D02*
X17820141Y-14488460D01*
X17820141Y-14488460D02*
X17810617Y-14440841D01*
X17810617Y-14440841D02*
X17810617Y-14402746D01*
X17810617Y-14402746D02*
X17820141Y-14355127D01*
X17820141Y-14355127D02*
X17829665Y-14326555D01*
X17829665Y-14326555D02*
X17839189Y-14307508D01*
X17839189Y-14307508D02*
X17858236Y-14278936D01*
X17858236Y-14278936D02*
X17867760Y-14269412D01*
X17934427Y-14317031D02*
X17943950Y-14307508D01*
X17943950Y-14307508D02*
X17962998Y-14297984D01*
X17962998Y-14297984D02*
X18010617Y-14297984D01*
X18010617Y-14297984D02*
X18029665Y-14307508D01*
X18029665Y-14307508D02*
X18039189Y-14317031D01*
X18039189Y-14317031D02*
X18048712Y-14336079D01*
X18048712Y-14336079D02*
X18048712Y-14355127D01*
X18048712Y-14355127D02*
X18039189Y-14383698D01*
X18039189Y-14383698D02*
X17924903Y-14497984D01*
X17924903Y-14497984D02*
X18048712Y-14497984D01*
X18286808Y-14497984D02*
X18286808Y-14297984D01*
X18372522Y-14497984D02*
X18372522Y-14393222D01*
X18372522Y-14393222D02*
X18362998Y-14374174D01*
X18362998Y-14374174D02*
X18343951Y-14364650D01*
X18343951Y-14364650D02*
X18315379Y-14364650D01*
X18315379Y-14364650D02*
X18296331Y-14374174D01*
X18296331Y-14374174D02*
X18286808Y-14383698D01*
X18496331Y-14497984D02*
X18477284Y-14488460D01*
X18477284Y-14488460D02*
X18467760Y-14478936D01*
X18467760Y-14478936D02*
X18458236Y-14459888D01*
X18458236Y-14459888D02*
X18458236Y-14402746D01*
X18458236Y-14402746D02*
X18467760Y-14383698D01*
X18467760Y-14383698D02*
X18477284Y-14374174D01*
X18477284Y-14374174D02*
X18496331Y-14364650D01*
X18496331Y-14364650D02*
X18524903Y-14364650D01*
X18524903Y-14364650D02*
X18543951Y-14374174D01*
X18543951Y-14374174D02*
X18553474Y-14383698D01*
X18553474Y-14383698D02*
X18562998Y-14402746D01*
X18562998Y-14402746D02*
X18562998Y-14459888D01*
X18562998Y-14459888D02*
X18553474Y-14478936D01*
X18553474Y-14478936D02*
X18543951Y-14488460D01*
X18543951Y-14488460D02*
X18524903Y-14497984D01*
X18524903Y-14497984D02*
X18496331Y-14497984D01*
X18677284Y-14497984D02*
X18658236Y-14488460D01*
X18658236Y-14488460D02*
X18648712Y-14469412D01*
X18648712Y-14469412D02*
X18648712Y-14297984D01*
X18829665Y-14488460D02*
X18810617Y-14497984D01*
X18810617Y-14497984D02*
X18772522Y-14497984D01*
X18772522Y-14497984D02*
X18753474Y-14488460D01*
X18753474Y-14488460D02*
X18743951Y-14469412D01*
X18743951Y-14469412D02*
X18743951Y-14393222D01*
X18743951Y-14393222D02*
X18753474Y-14374174D01*
X18753474Y-14374174D02*
X18772522Y-14364650D01*
X18772522Y-14364650D02*
X18810617Y-14364650D01*
X18810617Y-14364650D02*
X18829665Y-14374174D01*
X18829665Y-14374174D02*
X18839189Y-14393222D01*
X18839189Y-14393222D02*
X18839189Y-14412269D01*
X18839189Y-14412269D02*
X18743951Y-14431317D01*
X18915379Y-14488460D02*
X18934427Y-14497984D01*
X18934427Y-14497984D02*
X18972522Y-14497984D01*
X18972522Y-14497984D02*
X18991570Y-14488460D01*
X18991570Y-14488460D02*
X19001093Y-14469412D01*
X19001093Y-14469412D02*
X19001093Y-14459888D01*
X19001093Y-14459888D02*
X18991570Y-14440841D01*
X18991570Y-14440841D02*
X18972522Y-14431317D01*
X18972522Y-14431317D02*
X18943951Y-14431317D01*
X18943951Y-14431317D02*
X18924903Y-14421793D01*
X18924903Y-14421793D02*
X18915379Y-14402746D01*
X18915379Y-14402746D02*
X18915379Y-14393222D01*
X18915379Y-14393222D02*
X18924903Y-14374174D01*
X18924903Y-14374174D02*
X18943951Y-14364650D01*
X18943951Y-14364650D02*
X18972522Y-14364650D01*
X18972522Y-14364650D02*
X18991570Y-14374174D01*
X19067760Y-14574174D02*
X19077284Y-14564650D01*
X19077284Y-14564650D02*
X19096332Y-14536079D01*
X19096332Y-14536079D02*
X19105855Y-14517031D01*
X19105855Y-14517031D02*
X19115379Y-14488460D01*
X19115379Y-14488460D02*
X19124903Y-14440841D01*
X19124903Y-14440841D02*
X19124903Y-14402746D01*
X19124903Y-14402746D02*
X19115379Y-14355127D01*
X19115379Y-14355127D02*
X19105855Y-14326555D01*
X19105855Y-14326555D02*
X19096332Y-14307508D01*
X19096332Y-14307508D02*
X19077284Y-14278936D01*
X19077284Y-14278936D02*
X19067760Y-14269412D01*
D12*
X14242697Y-14620500D02*
X14242697Y-14720500D01*
X14192697Y-14670500D02*
X14292697Y-14670500D01*
D11*
X14658236Y-14761984D02*
X14543950Y-14761984D01*
X14601093Y-14761984D02*
X14601093Y-14561984D01*
X14601093Y-14561984D02*
X14582045Y-14590555D01*
X14582045Y-14590555D02*
X14562998Y-14609603D01*
X14562998Y-14609603D02*
X14543950Y-14619127D01*
X14743950Y-14742936D02*
X14753474Y-14752460D01*
X14753474Y-14752460D02*
X14743950Y-14761984D01*
X14743950Y-14761984D02*
X14734426Y-14752460D01*
X14734426Y-14752460D02*
X14743950Y-14742936D01*
X14743950Y-14742936D02*
X14743950Y-14761984D01*
X14877283Y-14561984D02*
X14896331Y-14561984D01*
X14896331Y-14561984D02*
X14915379Y-14571508D01*
X14915379Y-14571508D02*
X14924902Y-14581031D01*
X14924902Y-14581031D02*
X14934426Y-14600079D01*
X14934426Y-14600079D02*
X14943950Y-14638174D01*
X14943950Y-14638174D02*
X14943950Y-14685793D01*
X14943950Y-14685793D02*
X14934426Y-14723888D01*
X14934426Y-14723888D02*
X14924902Y-14742936D01*
X14924902Y-14742936D02*
X14915379Y-14752460D01*
X14915379Y-14752460D02*
X14896331Y-14761984D01*
X14896331Y-14761984D02*
X14877283Y-14761984D01*
X14877283Y-14761984D02*
X14858236Y-14752460D01*
X14858236Y-14752460D02*
X14848712Y-14742936D01*
X14848712Y-14742936D02*
X14839188Y-14723888D01*
X14839188Y-14723888D02*
X14829664Y-14685793D01*
X14829664Y-14685793D02*
X14829664Y-14638174D01*
X14829664Y-14638174D02*
X14839188Y-14600079D01*
X14839188Y-14600079D02*
X14848712Y-14581031D01*
X14848712Y-14581031D02*
X14858236Y-14571508D01*
X14858236Y-14571508D02*
X14877283Y-14561984D01*
X15067760Y-14561984D02*
X15086807Y-14561984D01*
X15086807Y-14561984D02*
X15105855Y-14571508D01*
X15105855Y-14571508D02*
X15115379Y-14581031D01*
X15115379Y-14581031D02*
X15124902Y-14600079D01*
X15124902Y-14600079D02*
X15134426Y-14638174D01*
X15134426Y-14638174D02*
X15134426Y-14685793D01*
X15134426Y-14685793D02*
X15124902Y-14723888D01*
X15124902Y-14723888D02*
X15115379Y-14742936D01*
X15115379Y-14742936D02*
X15105855Y-14752460D01*
X15105855Y-14752460D02*
X15086807Y-14761984D01*
X15086807Y-14761984D02*
X15067760Y-14761984D01*
X15067760Y-14761984D02*
X15048712Y-14752460D01*
X15048712Y-14752460D02*
X15039188Y-14742936D01*
X15039188Y-14742936D02*
X15029664Y-14723888D01*
X15029664Y-14723888D02*
X15020141Y-14685793D01*
X15020141Y-14685793D02*
X15020141Y-14638174D01*
X15020141Y-14638174D02*
X15029664Y-14600079D01*
X15029664Y-14600079D02*
X15039188Y-14581031D01*
X15039188Y-14581031D02*
X15048712Y-14571508D01*
X15048712Y-14571508D02*
X15067760Y-14561984D01*
X15258236Y-14561984D02*
X15277283Y-14561984D01*
X15277283Y-14561984D02*
X15296331Y-14571508D01*
X15296331Y-14571508D02*
X15305855Y-14581031D01*
X15305855Y-14581031D02*
X15315379Y-14600079D01*
X15315379Y-14600079D02*
X15324902Y-14638174D01*
X15324902Y-14638174D02*
X15324902Y-14685793D01*
X15324902Y-14685793D02*
X15315379Y-14723888D01*
X15315379Y-14723888D02*
X15305855Y-14742936D01*
X15305855Y-14742936D02*
X15296331Y-14752460D01*
X15296331Y-14752460D02*
X15277283Y-14761984D01*
X15277283Y-14761984D02*
X15258236Y-14761984D01*
X15258236Y-14761984D02*
X15239188Y-14752460D01*
X15239188Y-14752460D02*
X15229664Y-14742936D01*
X15229664Y-14742936D02*
X15220141Y-14723888D01*
X15220141Y-14723888D02*
X15210617Y-14685793D01*
X15210617Y-14685793D02*
X15210617Y-14638174D01*
X15210617Y-14638174D02*
X15220141Y-14600079D01*
X15220141Y-14600079D02*
X15229664Y-14581031D01*
X15229664Y-14581031D02*
X15239188Y-14571508D01*
X15239188Y-14571508D02*
X15258236Y-14561984D01*
X15410617Y-14761984D02*
X15410617Y-14628650D01*
X15410617Y-14647698D02*
X15420141Y-14638174D01*
X15420141Y-14638174D02*
X15439188Y-14628650D01*
X15439188Y-14628650D02*
X15467760Y-14628650D01*
X15467760Y-14628650D02*
X15486807Y-14638174D01*
X15486807Y-14638174D02*
X15496331Y-14657222D01*
X15496331Y-14657222D02*
X15496331Y-14761984D01*
X15496331Y-14657222D02*
X15505855Y-14638174D01*
X15505855Y-14638174D02*
X15524902Y-14628650D01*
X15524902Y-14628650D02*
X15553474Y-14628650D01*
X15553474Y-14628650D02*
X15572522Y-14638174D01*
X15572522Y-14638174D02*
X15582045Y-14657222D01*
X15582045Y-14657222D02*
X15582045Y-14761984D01*
X15677283Y-14761984D02*
X15677283Y-14628650D01*
X15677283Y-14647698D02*
X15686807Y-14638174D01*
X15686807Y-14638174D02*
X15705855Y-14628650D01*
X15705855Y-14628650D02*
X15734426Y-14628650D01*
X15734426Y-14628650D02*
X15753474Y-14638174D01*
X15753474Y-14638174D02*
X15762998Y-14657222D01*
X15762998Y-14657222D02*
X15762998Y-14761984D01*
X15762998Y-14657222D02*
X15772522Y-14638174D01*
X15772522Y-14638174D02*
X15791569Y-14628650D01*
X15791569Y-14628650D02*
X15820141Y-14628650D01*
X15820141Y-14628650D02*
X15839188Y-14638174D01*
X15839188Y-14638174D02*
X15848712Y-14657222D01*
X15848712Y-14657222D02*
X15848712Y-14761984D01*
X16239188Y-14552460D02*
X16067760Y-14809603D01*
X16496331Y-14561984D02*
X16515379Y-14561984D01*
X16515379Y-14561984D02*
X16534426Y-14571508D01*
X16534426Y-14571508D02*
X16543950Y-14581031D01*
X16543950Y-14581031D02*
X16553474Y-14600079D01*
X16553474Y-14600079D02*
X16562998Y-14638174D01*
X16562998Y-14638174D02*
X16562998Y-14685793D01*
X16562998Y-14685793D02*
X16553474Y-14723888D01*
X16553474Y-14723888D02*
X16543950Y-14742936D01*
X16543950Y-14742936D02*
X16534426Y-14752460D01*
X16534426Y-14752460D02*
X16515379Y-14761984D01*
X16515379Y-14761984D02*
X16496331Y-14761984D01*
X16496331Y-14761984D02*
X16477284Y-14752460D01*
X16477284Y-14752460D02*
X16467760Y-14742936D01*
X16467760Y-14742936D02*
X16458236Y-14723888D01*
X16458236Y-14723888D02*
X16448712Y-14685793D01*
X16448712Y-14685793D02*
X16448712Y-14638174D01*
X16448712Y-14638174D02*
X16458236Y-14600079D01*
X16458236Y-14600079D02*
X16467760Y-14581031D01*
X16467760Y-14581031D02*
X16477284Y-14571508D01*
X16477284Y-14571508D02*
X16496331Y-14561984D01*
X16648712Y-14742936D02*
X16658236Y-14752460D01*
X16658236Y-14752460D02*
X16648712Y-14761984D01*
X16648712Y-14761984D02*
X16639188Y-14752460D01*
X16639188Y-14752460D02*
X16648712Y-14742936D01*
X16648712Y-14742936D02*
X16648712Y-14761984D01*
X16782046Y-14561984D02*
X16801093Y-14561984D01*
X16801093Y-14561984D02*
X16820141Y-14571508D01*
X16820141Y-14571508D02*
X16829665Y-14581031D01*
X16829665Y-14581031D02*
X16839188Y-14600079D01*
X16839188Y-14600079D02*
X16848712Y-14638174D01*
X16848712Y-14638174D02*
X16848712Y-14685793D01*
X16848712Y-14685793D02*
X16839188Y-14723888D01*
X16839188Y-14723888D02*
X16829665Y-14742936D01*
X16829665Y-14742936D02*
X16820141Y-14752460D01*
X16820141Y-14752460D02*
X16801093Y-14761984D01*
X16801093Y-14761984D02*
X16782046Y-14761984D01*
X16782046Y-14761984D02*
X16762998Y-14752460D01*
X16762998Y-14752460D02*
X16753474Y-14742936D01*
X16753474Y-14742936D02*
X16743950Y-14723888D01*
X16743950Y-14723888D02*
X16734426Y-14685793D01*
X16734426Y-14685793D02*
X16734426Y-14638174D01*
X16734426Y-14638174D02*
X16743950Y-14600079D01*
X16743950Y-14600079D02*
X16753474Y-14581031D01*
X16753474Y-14581031D02*
X16762998Y-14571508D01*
X16762998Y-14571508D02*
X16782046Y-14561984D01*
X16915379Y-14561984D02*
X17039188Y-14561984D01*
X17039188Y-14561984D02*
X16972522Y-14638174D01*
X16972522Y-14638174D02*
X17001093Y-14638174D01*
X17001093Y-14638174D02*
X17020141Y-14647698D01*
X17020141Y-14647698D02*
X17029665Y-14657222D01*
X17029665Y-14657222D02*
X17039188Y-14676269D01*
X17039188Y-14676269D02*
X17039188Y-14723888D01*
X17039188Y-14723888D02*
X17029665Y-14742936D01*
X17029665Y-14742936D02*
X17020141Y-14752460D01*
X17020141Y-14752460D02*
X17001093Y-14761984D01*
X17001093Y-14761984D02*
X16943950Y-14761984D01*
X16943950Y-14761984D02*
X16924903Y-14752460D01*
X16924903Y-14752460D02*
X16915379Y-14742936D01*
X17134427Y-14761984D02*
X17172522Y-14761984D01*
X17172522Y-14761984D02*
X17191569Y-14752460D01*
X17191569Y-14752460D02*
X17201093Y-14742936D01*
X17201093Y-14742936D02*
X17220141Y-14714365D01*
X17220141Y-14714365D02*
X17229665Y-14676269D01*
X17229665Y-14676269D02*
X17229665Y-14600079D01*
X17229665Y-14600079D02*
X17220141Y-14581031D01*
X17220141Y-14581031D02*
X17210617Y-14571508D01*
X17210617Y-14571508D02*
X17191569Y-14561984D01*
X17191569Y-14561984D02*
X17153474Y-14561984D01*
X17153474Y-14561984D02*
X17134427Y-14571508D01*
X17134427Y-14571508D02*
X17124903Y-14581031D01*
X17124903Y-14581031D02*
X17115379Y-14600079D01*
X17115379Y-14600079D02*
X17115379Y-14647698D01*
X17115379Y-14647698D02*
X17124903Y-14666746D01*
X17124903Y-14666746D02*
X17134427Y-14676269D01*
X17134427Y-14676269D02*
X17153474Y-14685793D01*
X17153474Y-14685793D02*
X17191569Y-14685793D01*
X17191569Y-14685793D02*
X17210617Y-14676269D01*
X17210617Y-14676269D02*
X17220141Y-14666746D01*
X17220141Y-14666746D02*
X17229665Y-14647698D01*
X17401093Y-14628650D02*
X17401093Y-14761984D01*
X17353474Y-14552460D02*
X17305855Y-14695317D01*
X17305855Y-14695317D02*
X17429665Y-14695317D01*
X17496331Y-14561984D02*
X17496331Y-14600079D01*
X17572522Y-14561984D02*
X17572522Y-14600079D01*
X17867760Y-14838174D02*
X17858236Y-14828650D01*
X17858236Y-14828650D02*
X17839189Y-14800079D01*
X17839189Y-14800079D02*
X17829665Y-14781031D01*
X17829665Y-14781031D02*
X17820141Y-14752460D01*
X17820141Y-14752460D02*
X17810617Y-14704841D01*
X17810617Y-14704841D02*
X17810617Y-14666746D01*
X17810617Y-14666746D02*
X17820141Y-14619127D01*
X17820141Y-14619127D02*
X17829665Y-14590555D01*
X17829665Y-14590555D02*
X17839189Y-14571508D01*
X17839189Y-14571508D02*
X17858236Y-14542936D01*
X17858236Y-14542936D02*
X17867760Y-14533412D01*
X18029665Y-14561984D02*
X17991569Y-14561984D01*
X17991569Y-14561984D02*
X17972522Y-14571508D01*
X17972522Y-14571508D02*
X17962998Y-14581031D01*
X17962998Y-14581031D02*
X17943950Y-14609603D01*
X17943950Y-14609603D02*
X17934427Y-14647698D01*
X17934427Y-14647698D02*
X17934427Y-14723888D01*
X17934427Y-14723888D02*
X17943950Y-14742936D01*
X17943950Y-14742936D02*
X17953474Y-14752460D01*
X17953474Y-14752460D02*
X17972522Y-14761984D01*
X17972522Y-14761984D02*
X18010617Y-14761984D01*
X18010617Y-14761984D02*
X18029665Y-14752460D01*
X18029665Y-14752460D02*
X18039189Y-14742936D01*
X18039189Y-14742936D02*
X18048712Y-14723888D01*
X18048712Y-14723888D02*
X18048712Y-14676269D01*
X18048712Y-14676269D02*
X18039189Y-14657222D01*
X18039189Y-14657222D02*
X18029665Y-14647698D01*
X18029665Y-14647698D02*
X18010617Y-14638174D01*
X18010617Y-14638174D02*
X17972522Y-14638174D01*
X17972522Y-14638174D02*
X17953474Y-14647698D01*
X17953474Y-14647698D02*
X17943950Y-14657222D01*
X17943950Y-14657222D02*
X17934427Y-14676269D01*
X18220141Y-14628650D02*
X18220141Y-14761984D01*
X18172522Y-14552460D02*
X18124903Y-14695317D01*
X18124903Y-14695317D02*
X18248712Y-14695317D01*
X18477284Y-14761984D02*
X18477284Y-14561984D01*
X18562998Y-14761984D02*
X18562998Y-14657222D01*
X18562998Y-14657222D02*
X18553474Y-14638174D01*
X18553474Y-14638174D02*
X18534427Y-14628650D01*
X18534427Y-14628650D02*
X18505855Y-14628650D01*
X18505855Y-14628650D02*
X18486808Y-14638174D01*
X18486808Y-14638174D02*
X18477284Y-14647698D01*
X18686808Y-14761984D02*
X18667760Y-14752460D01*
X18667760Y-14752460D02*
X18658236Y-14742936D01*
X18658236Y-14742936D02*
X18648712Y-14723888D01*
X18648712Y-14723888D02*
X18648712Y-14666746D01*
X18648712Y-14666746D02*
X18658236Y-14647698D01*
X18658236Y-14647698D02*
X18667760Y-14638174D01*
X18667760Y-14638174D02*
X18686808Y-14628650D01*
X18686808Y-14628650D02*
X18715379Y-14628650D01*
X18715379Y-14628650D02*
X18734427Y-14638174D01*
X18734427Y-14638174D02*
X18743951Y-14647698D01*
X18743951Y-14647698D02*
X18753474Y-14666746D01*
X18753474Y-14666746D02*
X18753474Y-14723888D01*
X18753474Y-14723888D02*
X18743951Y-14742936D01*
X18743951Y-14742936D02*
X18734427Y-14752460D01*
X18734427Y-14752460D02*
X18715379Y-14761984D01*
X18715379Y-14761984D02*
X18686808Y-14761984D01*
X18867760Y-14761984D02*
X18848712Y-14752460D01*
X18848712Y-14752460D02*
X18839189Y-14733412D01*
X18839189Y-14733412D02*
X18839189Y-14561984D01*
X19020141Y-14752460D02*
X19001093Y-14761984D01*
X19001093Y-14761984D02*
X18962998Y-14761984D01*
X18962998Y-14761984D02*
X18943951Y-14752460D01*
X18943951Y-14752460D02*
X18934427Y-14733412D01*
X18934427Y-14733412D02*
X18934427Y-14657222D01*
X18934427Y-14657222D02*
X18943951Y-14638174D01*
X18943951Y-14638174D02*
X18962998Y-14628650D01*
X18962998Y-14628650D02*
X19001093Y-14628650D01*
X19001093Y-14628650D02*
X19020141Y-14638174D01*
X19020141Y-14638174D02*
X19029665Y-14657222D01*
X19029665Y-14657222D02*
X19029665Y-14676269D01*
X19029665Y-14676269D02*
X18934427Y-14695317D01*
X19105855Y-14752460D02*
X19124903Y-14761984D01*
X19124903Y-14761984D02*
X19162998Y-14761984D01*
X19162998Y-14761984D02*
X19182046Y-14752460D01*
X19182046Y-14752460D02*
X19191570Y-14733412D01*
X19191570Y-14733412D02*
X19191570Y-14723888D01*
X19191570Y-14723888D02*
X19182046Y-14704841D01*
X19182046Y-14704841D02*
X19162998Y-14695317D01*
X19162998Y-14695317D02*
X19134427Y-14695317D01*
X19134427Y-14695317D02*
X19115379Y-14685793D01*
X19115379Y-14685793D02*
X19105855Y-14666746D01*
X19105855Y-14666746D02*
X19105855Y-14657222D01*
X19105855Y-14657222D02*
X19115379Y-14638174D01*
X19115379Y-14638174D02*
X19134427Y-14628650D01*
X19134427Y-14628650D02*
X19162998Y-14628650D01*
X19162998Y-14628650D02*
X19182046Y-14638174D01*
X19258236Y-14838174D02*
X19267760Y-14828650D01*
X19267760Y-14828650D02*
X19286808Y-14800079D01*
X19286808Y-14800079D02*
X19296332Y-14781031D01*
X19296332Y-14781031D02*
X19305855Y-14752460D01*
X19305855Y-14752460D02*
X19315379Y-14704841D01*
X19315379Y-14704841D02*
X19315379Y-14666746D01*
X19315379Y-14666746D02*
X19305855Y-14619127D01*
X19305855Y-14619127D02*
X19296332Y-14590555D01*
X19296332Y-14590555D02*
X19286808Y-14571508D01*
X19286808Y-14571508D02*
X19267760Y-14542936D01*
X19267760Y-14542936D02*
X19258236Y-14533412D01*
M02*
