G04 #@! TF.GenerationSoftware,KiCad,Pcbnew,8.0.7*
G04 #@! TF.CreationDate,2025-01-16T17:26:47-05:00*
G04 #@! TF.ProjectId,simple_ide,73696d70-6c65-45f6-9964-652e6b696361,rev?*
G04 #@! TF.SameCoordinates,Original*
G04 #@! TF.FileFunction,Legend,Bot*
G04 #@! TF.FilePolarity,Positive*
%FSLAX46Y46*%
G04 Gerber Fmt 4.6, Leading zero omitted, Abs format (unit mm)*
G04 Created by KiCad (PCBNEW 8.0.7) date 2025-01-16 17:26:47*
%MOMM*%
%LPD*%
G01*
G04 APERTURE LIST*
%ADD10O,2.400000X1.600000*%
%ADD11R,2.400000X1.600000*%
%ADD12C,1.600000*%
%ADD13O,1.600000X1.600000*%
%ADD14R,1.800000X1.800000*%
%ADD15C,1.800000*%
%ADD16R,1.350000X1.350000*%
%ADD17O,1.350000X1.350000*%
%ADD18R,1.700000X1.700000*%
%ADD19O,1.700000X1.700000*%
G04 APERTURE END LIST*
%LPC*%
D10*
G04 #@! TO.C,IC2*
X149480000Y-79000000D03*
X149480000Y-76460000D03*
X149480000Y-73920000D03*
X149480000Y-71380000D03*
X149480000Y-68840000D03*
X149480000Y-66300000D03*
X149480000Y-63760000D03*
X149480000Y-61220000D03*
X149480000Y-58680000D03*
X149480000Y-56140000D03*
X149480000Y-53600000D03*
X149480000Y-51060000D03*
X157100000Y-51060000D03*
X157100000Y-53600000D03*
X157100000Y-56140000D03*
X157100000Y-58680000D03*
X157100000Y-61220000D03*
X157100000Y-63760000D03*
X157100000Y-66300000D03*
X157100000Y-68840000D03*
X157100000Y-71380000D03*
X157100000Y-73920000D03*
X157100000Y-76460000D03*
D11*
X157100000Y-79000000D03*
G04 #@! TD*
D12*
G04 #@! TO.C,C4*
X175350000Y-53450000D03*
X175350000Y-50950000D03*
G04 #@! TD*
G04 #@! TO.C,R2*
X157500000Y-104210000D03*
D13*
X157500000Y-96590000D03*
G04 #@! TD*
D14*
G04 #@! TO.C,D2*
X157625000Y-119400000D03*
D15*
X160165000Y-119400000D03*
G04 #@! TD*
D12*
G04 #@! TO.C,C3*
X146000000Y-76600000D03*
X146000000Y-79100000D03*
G04 #@! TD*
G04 #@! TO.C,R3*
X160500000Y-104210000D03*
D13*
X160500000Y-96590000D03*
G04 #@! TD*
D12*
G04 #@! TO.C,C2*
X175350000Y-83135000D03*
X175350000Y-85635000D03*
G04 #@! TD*
D11*
G04 #@! TO.C,IC4*
X164430000Y-109760000D03*
D10*
X164430000Y-112300000D03*
X164430000Y-114840000D03*
X164430000Y-117380000D03*
X164430000Y-119920000D03*
X164430000Y-122460000D03*
X164430000Y-125000000D03*
X164430000Y-127540000D03*
X164430000Y-130080000D03*
X164430000Y-132620000D03*
X172050000Y-132620000D03*
X172050000Y-130080000D03*
X172050000Y-127540000D03*
X172050000Y-125000000D03*
X172050000Y-122460000D03*
X172050000Y-119920000D03*
X172050000Y-117380000D03*
X172050000Y-114840000D03*
X172050000Y-112300000D03*
X172050000Y-109760000D03*
G04 #@! TD*
G04 #@! TO.C,IC1*
X172150000Y-51050000D03*
X172150000Y-53590000D03*
X172150000Y-56130000D03*
X172150000Y-58670000D03*
X172150000Y-61210000D03*
X172150000Y-63750000D03*
X172150000Y-66290000D03*
X172150000Y-68830000D03*
X172150000Y-71370000D03*
X172150000Y-73910000D03*
X172150000Y-76450000D03*
X172150000Y-78990000D03*
X164530000Y-78990000D03*
X164530000Y-76450000D03*
X164530000Y-73910000D03*
X164530000Y-71370000D03*
X164530000Y-68830000D03*
X164530000Y-66290000D03*
X164530000Y-63750000D03*
X164530000Y-61210000D03*
X164530000Y-58670000D03*
X164530000Y-56130000D03*
X164530000Y-53590000D03*
D11*
X164530000Y-51050000D03*
G04 #@! TD*
D16*
G04 #@! TO.C,J2*
X153800000Y-86900000D03*
D17*
X151800000Y-86900000D03*
X153800000Y-88900000D03*
X151800000Y-88900000D03*
X153800000Y-90900000D03*
X151800000Y-90900000D03*
X153800000Y-92900000D03*
X151800000Y-92900000D03*
X153800000Y-94900000D03*
X151800000Y-94900000D03*
X153800000Y-96900000D03*
X151800000Y-96900000D03*
X153800000Y-98900000D03*
X151800000Y-98900000D03*
X153800000Y-100900000D03*
X151800000Y-100900000D03*
X153800000Y-102900000D03*
X151800000Y-102900000D03*
X153800000Y-104900000D03*
X151800000Y-104900000D03*
X153800000Y-106900000D03*
X151800000Y-106900000D03*
X153800000Y-108900000D03*
X151800000Y-108900000D03*
X153800000Y-110900000D03*
X151800000Y-110900000D03*
X153800000Y-112900000D03*
X151800000Y-112900000D03*
X153800000Y-114900000D03*
X151800000Y-114900000D03*
X153800000Y-116900000D03*
X151800000Y-116900000D03*
X153800000Y-118900000D03*
X151800000Y-118900000D03*
X153800000Y-120900000D03*
X151800000Y-120900000D03*
X153800000Y-122900000D03*
X151800000Y-122900000D03*
X153800000Y-124900000D03*
X151800000Y-124900000D03*
X153800000Y-126900000D03*
X151800000Y-126900000D03*
X153800000Y-128900000D03*
X151800000Y-128900000D03*
G04 #@! TD*
D10*
G04 #@! TO.C,IC3*
X172050000Y-83185000D03*
X172050000Y-85725000D03*
X172050000Y-88265000D03*
X172050000Y-90805000D03*
X172050000Y-93345000D03*
X172050000Y-95885000D03*
X172050000Y-98425000D03*
X172050000Y-100965000D03*
X172050000Y-103505000D03*
X172050000Y-106045000D03*
X164430000Y-106045000D03*
X164430000Y-103505000D03*
X164430000Y-100965000D03*
X164430000Y-98425000D03*
X164430000Y-95885000D03*
X164430000Y-93345000D03*
X164430000Y-90805000D03*
X164430000Y-88265000D03*
X164430000Y-85725000D03*
D11*
X164430000Y-83185000D03*
G04 #@! TD*
D18*
G04 #@! TO.C,BUS1*
X178662000Y-45600300D03*
D19*
X181202000Y-45600300D03*
X178662000Y-48140300D03*
X181202000Y-48140300D03*
X178662000Y-50680300D03*
X181202000Y-50680300D03*
X178662000Y-53220300D03*
X181202000Y-53220300D03*
X178662000Y-55760300D03*
X181202000Y-55760300D03*
X178662000Y-58300300D03*
X181202000Y-58300300D03*
X178662000Y-60840300D03*
X181202000Y-60840300D03*
X178662000Y-63380300D03*
X181202000Y-63380300D03*
X178662000Y-65920300D03*
X181202000Y-65920300D03*
X178662000Y-68460300D03*
X181202000Y-68460300D03*
X178662000Y-71000300D03*
X181202000Y-71000300D03*
X178662000Y-73540300D03*
X181202000Y-73540300D03*
X178662000Y-76080300D03*
X181202000Y-76080300D03*
X178662000Y-78620300D03*
X181202000Y-78620300D03*
X178662000Y-81160300D03*
X181202000Y-81160300D03*
X178662000Y-83700300D03*
X181202000Y-83700300D03*
X178662000Y-86240300D03*
X181202000Y-86240300D03*
X178662000Y-88780300D03*
X181202000Y-88780300D03*
X178662000Y-91320300D03*
X181202000Y-91320300D03*
X178662000Y-93860300D03*
X181202000Y-93860300D03*
X178662000Y-96400300D03*
X181202000Y-96400300D03*
X178662000Y-98940300D03*
X181202000Y-98940300D03*
X178662000Y-101480300D03*
X181202000Y-101480300D03*
X178662000Y-104020300D03*
X181202000Y-104020300D03*
X178662000Y-106560300D03*
X181202000Y-106560300D03*
X178662000Y-109100300D03*
X181202000Y-109100300D03*
X178662000Y-111640300D03*
X181202000Y-111640300D03*
X178662000Y-114180300D03*
X181202000Y-114180300D03*
X178662000Y-116720300D03*
X181202000Y-116720300D03*
X178662000Y-119260300D03*
X181202000Y-119260300D03*
X178662000Y-121800300D03*
X181202000Y-121800300D03*
X178662000Y-124340300D03*
X181202000Y-124340300D03*
G04 #@! TD*
D12*
G04 #@! TO.C,C1*
X175350000Y-109710000D03*
X175350000Y-112210000D03*
G04 #@! TD*
G04 #@! TO.C,R1*
X158900000Y-107000000D03*
D13*
X158900000Y-114620000D03*
G04 #@! TD*
%LPD*%
M02*
