G04 #@! TF.GenerationSoftware,KiCad,Pcbnew,8.0.7*
G04 #@! TF.CreationDate,2025-01-16T17:26:46-05:00*
G04 #@! TF.ProjectId,simple_ide,73696d70-6c65-45f6-9964-652e6b696361,rev?*
G04 #@! TF.SameCoordinates,Original*
G04 #@! TF.FileFunction,Copper,L1,Top*
G04 #@! TF.FilePolarity,Positive*
%FSLAX46Y46*%
G04 Gerber Fmt 4.6, Leading zero omitted, Abs format (unit mm)*
G04 Created by KiCad (PCBNEW 8.0.7) date 2025-01-16 17:26:46*
%MOMM*%
%LPD*%
G01*
G04 APERTURE LIST*
G04 #@! TA.AperFunction,ComponentPad*
%ADD10O,2.400000X1.600000*%
G04 #@! TD*
G04 #@! TA.AperFunction,ComponentPad*
%ADD11R,2.400000X1.600000*%
G04 #@! TD*
G04 #@! TA.AperFunction,ComponentPad*
%ADD12C,1.600000*%
G04 #@! TD*
G04 #@! TA.AperFunction,ComponentPad*
%ADD13O,1.600000X1.600000*%
G04 #@! TD*
G04 #@! TA.AperFunction,ComponentPad*
%ADD14R,1.800000X1.800000*%
G04 #@! TD*
G04 #@! TA.AperFunction,ComponentPad*
%ADD15C,1.800000*%
G04 #@! TD*
G04 #@! TA.AperFunction,ComponentPad*
%ADD16R,1.350000X1.350000*%
G04 #@! TD*
G04 #@! TA.AperFunction,ComponentPad*
%ADD17O,1.350000X1.350000*%
G04 #@! TD*
G04 #@! TA.AperFunction,ComponentPad*
%ADD18R,1.700000X1.700000*%
G04 #@! TD*
G04 #@! TA.AperFunction,ComponentPad*
%ADD19O,1.700000X1.700000*%
G04 #@! TD*
G04 #@! TA.AperFunction,Conductor*
%ADD20C,0.250000*%
G04 #@! TD*
G04 APERTURE END LIST*
D10*
G04 #@! TO.P,IC2,24,VCC*
G04 #@! TO.N,+5V*
X149480000Y-79000000D03*
G04 #@! TO.P,IC2,23,I/O_10*
G04 #@! TO.N,~{IDECS1}*
X149480000Y-76460000D03*
G04 #@! TO.P,IC2,22,I/O_9*
G04 #@! TO.N,~{IDECS0}*
X149480000Y-73920000D03*
G04 #@! TO.P,IC2,21,I/O_8*
G04 #@! TO.N,A3*
X149480000Y-71380000D03*
G04 #@! TO.P,IC2,20,I/O_7*
G04 #@! TO.N,IDESEL*
X149480000Y-68840000D03*
G04 #@! TO.P,IC2,19,I/O_6*
G04 #@! TO.N,~{IDEWR}*
X149480000Y-66300000D03*
G04 #@! TO.P,IC2,18,I/O_5*
G04 #@! TO.N,~{IDERD}*
X149480000Y-63760000D03*
G04 #@! TO.P,IC2,17,I/O_4*
G04 #@! TO.N,~{IDEBUF}*
X149480000Y-61220000D03*
G04 #@! TO.P,IC2,16,I/O_3*
G04 #@! TO.N,DTACK*
X149480000Y-58680000D03*
G04 #@! TO.P,IC2,15,I/O_2*
G04 #@! TO.N,unconnected-(IC2-I{slash}O_2-Pad15)*
X149480000Y-56140000D03*
G04 #@! TO.P,IC2,14,I/O_1*
G04 #@! TO.N,VPA*
X149480000Y-53600000D03*
G04 #@! TO.P,IC2,13,IN_10*
G04 #@! TO.N,unconnected-(IC2-IN_10-Pad13)*
X149480000Y-51060000D03*
G04 #@! TO.P,IC2,12,GND*
G04 #@! TO.N,GND*
X157100000Y-51060000D03*
G04 #@! TO.P,IC2,11,IN_9*
G04 #@! TO.N,FC2*
X157100000Y-53600000D03*
G04 #@! TO.P,IC2,10,IN_8*
G04 #@! TO.N,FC1*
X157100000Y-56140000D03*
G04 #@! TO.P,IC2,9,IN_7*
G04 #@! TO.N,FC0*
X157100000Y-58680000D03*
G04 #@! TO.P,IC2,8,IN_6*
G04 #@! TO.N,IDERDY*
X157100000Y-61220000D03*
G04 #@! TO.P,IC2,7,IN_5*
G04 #@! TO.N,A1*
X157100000Y-63760000D03*
G04 #@! TO.P,IC2,6,IN_4*
G04 #@! TO.N,A2*
X157100000Y-66300000D03*
G04 #@! TO.P,IC2,5,IN_3*
G04 #@! TO.N,UDS*
X157100000Y-68840000D03*
G04 #@! TO.P,IC2,4,IN/PD*
G04 #@! TO.N,A4*
X157100000Y-71380000D03*
G04 #@! TO.P,IC2,3,IN_2*
G04 #@! TO.N,~{IDECS}*
X157100000Y-73920000D03*
G04 #@! TO.P,IC2,2,IN_1*
G04 #@! TO.N,AS*
X157100000Y-76460000D03*
D11*
G04 #@! TO.P,IC2,1,CLK/IN*
G04 #@! TO.N,RW*
X157100000Y-79000000D03*
G04 #@! TD*
D12*
G04 #@! TO.P,C4,2*
G04 #@! TO.N,GND*
X175350000Y-53450000D03*
G04 #@! TO.P,C4,1*
G04 #@! TO.N,+5V*
X175350000Y-50950000D03*
G04 #@! TD*
G04 #@! TO.P,R2,1*
G04 #@! TO.N,IDERDY*
X157500000Y-104210000D03*
D13*
G04 #@! TO.P,R2,2*
G04 #@! TO.N,GND*
X157500000Y-96590000D03*
G04 #@! TD*
D14*
G04 #@! TO.P,D2,1,K*
G04 #@! TO.N,~{DASP}*
X157625000Y-119400000D03*
D15*
G04 #@! TO.P,D2,2,A*
G04 #@! TO.N,Net-(D2-A)*
X160165000Y-119400000D03*
G04 #@! TD*
D12*
G04 #@! TO.P,C3,2*
G04 #@! TO.N,GND*
X146000000Y-76600000D03*
G04 #@! TO.P,C3,1*
G04 #@! TO.N,+5V*
X146000000Y-79100000D03*
G04 #@! TD*
G04 #@! TO.P,R3,1*
G04 #@! TO.N,INTRQ*
X160500000Y-104210000D03*
D13*
G04 #@! TO.P,R3,2*
G04 #@! TO.N,GND*
X160500000Y-96590000D03*
G04 #@! TD*
D12*
G04 #@! TO.P,C2,1*
G04 #@! TO.N,+5V*
X175350000Y-83135000D03*
G04 #@! TO.P,C2,2*
G04 #@! TO.N,GND*
X175350000Y-85635000D03*
G04 #@! TD*
D11*
G04 #@! TO.P,IC4,1,A->B*
G04 #@! TO.N,RW*
X164430000Y-109760000D03*
D10*
G04 #@! TO.P,IC4,2,A0*
G04 #@! TO.N,BD15*
X164430000Y-112300000D03*
G04 #@! TO.P,IC4,3,A1*
G04 #@! TO.N,BD14*
X164430000Y-114840000D03*
G04 #@! TO.P,IC4,4,A2*
G04 #@! TO.N,BD13*
X164430000Y-117380000D03*
G04 #@! TO.P,IC4,5,A3*
G04 #@! TO.N,BD12*
X164430000Y-119920000D03*
G04 #@! TO.P,IC4,6,A4*
G04 #@! TO.N,BD11*
X164430000Y-122460000D03*
G04 #@! TO.P,IC4,7,A5*
G04 #@! TO.N,BD10*
X164430000Y-125000000D03*
G04 #@! TO.P,IC4,8,A6*
G04 #@! TO.N,BD9*
X164430000Y-127540000D03*
G04 #@! TO.P,IC4,9,A7*
G04 #@! TO.N,BD8*
X164430000Y-130080000D03*
G04 #@! TO.P,IC4,10,GND*
G04 #@! TO.N,GND*
X164430000Y-132620000D03*
G04 #@! TO.P,IC4,11,B7*
G04 #@! TO.N,D0*
X172050000Y-132620000D03*
G04 #@! TO.P,IC4,12,B6*
G04 #@! TO.N,D1*
X172050000Y-130080000D03*
G04 #@! TO.P,IC4,13,B5*
G04 #@! TO.N,D2*
X172050000Y-127540000D03*
G04 #@! TO.P,IC4,14,B4*
G04 #@! TO.N,D3*
X172050000Y-125000000D03*
G04 #@! TO.P,IC4,15,B3*
G04 #@! TO.N,D4*
X172050000Y-122460000D03*
G04 #@! TO.P,IC4,16,B2*
G04 #@! TO.N,D5*
X172050000Y-119920000D03*
G04 #@! TO.P,IC4,17,B1*
G04 #@! TO.N,D6*
X172050000Y-117380000D03*
G04 #@! TO.P,IC4,18,B0*
G04 #@! TO.N,D7*
X172050000Y-114840000D03*
G04 #@! TO.P,IC4,19,CE*
G04 #@! TO.N,IDEBUF*
X172050000Y-112300000D03*
G04 #@! TO.P,IC4,20,VCC*
G04 #@! TO.N,+5V*
X172050000Y-109760000D03*
G04 #@! TD*
G04 #@! TO.P,IC1,24,VCC*
G04 #@! TO.N,+5V*
X172150000Y-51050000D03*
G04 #@! TO.P,IC1,23,I/O_10*
G04 #@! TO.N,~{IDECS}*
X172150000Y-53590000D03*
G04 #@! TO.P,IC1,22,I/O_9*
G04 #@! TO.N,A5*
X172150000Y-56130000D03*
G04 #@! TO.P,IC1,21,I/O_8*
G04 #@! TO.N,A6*
X172150000Y-58670000D03*
G04 #@! TO.P,IC1,20,I/O_7*
G04 #@! TO.N,A7*
X172150000Y-61210000D03*
G04 #@! TO.P,IC1,19,I/O_6*
G04 #@! TO.N,A8*
X172150000Y-63750000D03*
G04 #@! TO.P,IC1,18,I/O_5*
G04 #@! TO.N,A9*
X172150000Y-66290000D03*
G04 #@! TO.P,IC1,17,I/O_4*
G04 #@! TO.N,A10*
X172150000Y-68830000D03*
G04 #@! TO.P,IC1,16,I/O_3*
G04 #@! TO.N,A11*
X172150000Y-71370000D03*
G04 #@! TO.P,IC1,15,I/O_2*
G04 #@! TO.N,A12*
X172150000Y-73910000D03*
G04 #@! TO.P,IC1,14,I/O_1*
G04 #@! TO.N,A13*
X172150000Y-76450000D03*
G04 #@! TO.P,IC1,13,IN_10*
G04 #@! TO.N,A14*
X172150000Y-78990000D03*
G04 #@! TO.P,IC1,12,GND*
G04 #@! TO.N,GND*
X164530000Y-78990000D03*
G04 #@! TO.P,IC1,11,IN_9*
G04 #@! TO.N,AS*
X164530000Y-76450000D03*
G04 #@! TO.P,IC1,10,IN_8*
G04 #@! TO.N,A19*
X164530000Y-73910000D03*
G04 #@! TO.P,IC1,9,IN_7*
G04 #@! TO.N,A18*
X164530000Y-71370000D03*
G04 #@! TO.P,IC1,8,IN_6*
G04 #@! TO.N,A17*
X164530000Y-68830000D03*
G04 #@! TO.P,IC1,7,IN_5*
G04 #@! TO.N,A16*
X164530000Y-66290000D03*
G04 #@! TO.P,IC1,6,IN_4*
G04 #@! TO.N,A15*
X164530000Y-63750000D03*
G04 #@! TO.P,IC1,5,IN_3*
G04 #@! TO.N,unconnected-(IC1-IN_3-Pad5)*
X164530000Y-61210000D03*
G04 #@! TO.P,IC1,4,IN/PD*
G04 #@! TO.N,FC0*
X164530000Y-58670000D03*
G04 #@! TO.P,IC1,3,IN_2*
G04 #@! TO.N,FC1*
X164530000Y-56130000D03*
G04 #@! TO.P,IC1,2,IN_1*
G04 #@! TO.N,FC2*
X164530000Y-53590000D03*
D11*
G04 #@! TO.P,IC1,1,CLK/IN*
G04 #@! TO.N,IOSEL*
X164530000Y-51050000D03*
G04 #@! TD*
D16*
G04 #@! TO.P,J2,1,Pin_1*
G04 #@! TO.N,~{RESET}*
X153800000Y-86900000D03*
D17*
G04 #@! TO.P,J2,2,Pin_2*
G04 #@! TO.N,GND*
X151800000Y-86900000D03*
G04 #@! TO.P,J2,3,Pin_3*
G04 #@! TO.N,BD7*
X153800000Y-88900000D03*
G04 #@! TO.P,J2,4,Pin_4*
G04 #@! TO.N,BD8*
X151800000Y-88900000D03*
G04 #@! TO.P,J2,5,Pin_5*
G04 #@! TO.N,BD6*
X153800000Y-90900000D03*
G04 #@! TO.P,J2,6,Pin_6*
G04 #@! TO.N,BD9*
X151800000Y-90900000D03*
G04 #@! TO.P,J2,7,Pin_7*
G04 #@! TO.N,BD5*
X153800000Y-92900000D03*
G04 #@! TO.P,J2,8,Pin_8*
G04 #@! TO.N,BD10*
X151800000Y-92900000D03*
G04 #@! TO.P,J2,9,Pin_9*
G04 #@! TO.N,BD4*
X153800000Y-94900000D03*
G04 #@! TO.P,J2,10,Pin_10*
G04 #@! TO.N,BD11*
X151800000Y-94900000D03*
G04 #@! TO.P,J2,11,Pin_11*
G04 #@! TO.N,BD3*
X153800000Y-96900000D03*
G04 #@! TO.P,J2,12,Pin_12*
G04 #@! TO.N,BD12*
X151800000Y-96900000D03*
G04 #@! TO.P,J2,13,Pin_13*
G04 #@! TO.N,BD2*
X153800000Y-98900000D03*
G04 #@! TO.P,J2,14,Pin_14*
G04 #@! TO.N,BD13*
X151800000Y-98900000D03*
G04 #@! TO.P,J2,15,Pin_15*
G04 #@! TO.N,BD1*
X153800000Y-100900000D03*
G04 #@! TO.P,J2,16,Pin_16*
G04 #@! TO.N,BD14*
X151800000Y-100900000D03*
G04 #@! TO.P,J2,17,Pin_17*
G04 #@! TO.N,BD0*
X153800000Y-102900000D03*
G04 #@! TO.P,J2,18,Pin_18*
G04 #@! TO.N,BD15*
X151800000Y-102900000D03*
G04 #@! TO.P,J2,19,Pin_19*
G04 #@! TO.N,GND*
X153800000Y-104900000D03*
G04 #@! TO.P,J2,20,Pin_20*
G04 #@! TO.N,unconnected-(J2-Pin_20-Pad20)*
X151800000Y-104900000D03*
G04 #@! TO.P,J2,21,Pin_21*
G04 #@! TO.N,unconnected-(J2-Pin_21-Pad21)*
X153800000Y-106900000D03*
G04 #@! TO.P,J2,22,Pin_22*
G04 #@! TO.N,GND*
X151800000Y-106900000D03*
G04 #@! TO.P,J2,23,Pin_23*
G04 #@! TO.N,~{IDEWR}*
X153800000Y-108900000D03*
G04 #@! TO.P,J2,24,Pin_24*
G04 #@! TO.N,GND*
X151800000Y-108900000D03*
G04 #@! TO.P,J2,25,Pin_25*
G04 #@! TO.N,~{IDERD}*
X153800000Y-110900000D03*
G04 #@! TO.P,J2,26,Pin_26*
G04 #@! TO.N,GND*
X151800000Y-110900000D03*
G04 #@! TO.P,J2,27,Pin_27*
G04 #@! TO.N,IDERDY*
X153800000Y-112900000D03*
G04 #@! TO.P,J2,28,Pin_28*
G04 #@! TO.N,unconnected-(J2-Pin_28-Pad28)*
X151800000Y-112900000D03*
G04 #@! TO.P,J2,29,Pin_29*
G04 #@! TO.N,unconnected-(J2-Pin_29-Pad29)*
X153800000Y-114900000D03*
G04 #@! TO.P,J2,30,Pin_30*
G04 #@! TO.N,GND*
X151800000Y-114900000D03*
G04 #@! TO.P,J2,31,Pin_31*
G04 #@! TO.N,INTRQ*
X153800000Y-116900000D03*
G04 #@! TO.P,J2,32,Pin_32*
G04 #@! TO.N,unconnected-(J2-Pin_32-Pad32)*
X151800000Y-116900000D03*
G04 #@! TO.P,J2,33,Pin_33*
G04 #@! TO.N,A2*
X153800000Y-118900000D03*
G04 #@! TO.P,J2,34,Pin_34*
G04 #@! TO.N,unconnected-(J2-Pin_34-Pad34)*
X151800000Y-118900000D03*
G04 #@! TO.P,J2,35,Pin_35*
G04 #@! TO.N,A1*
X153800000Y-120900000D03*
G04 #@! TO.P,J2,36,Pin_36*
G04 #@! TO.N,A3*
X151800000Y-120900000D03*
G04 #@! TO.P,J2,37,Pin_37*
G04 #@! TO.N,~{IDECS0}*
X153800000Y-122900000D03*
G04 #@! TO.P,J2,38,Pin_38*
G04 #@! TO.N,~{IDECS1}*
X151800000Y-122900000D03*
G04 #@! TO.P,J2,39,Pin_39*
G04 #@! TO.N,~{DASP}*
X153800000Y-124900000D03*
G04 #@! TO.P,J2,40,Pin_40*
G04 #@! TO.N,GND*
X151800000Y-124900000D03*
G04 #@! TO.P,J2,41,Pin_41*
G04 #@! TO.N,+5V*
X153800000Y-126900000D03*
G04 #@! TO.P,J2,42,Pin_42*
G04 #@! TO.N,unconnected-(J2-Pin_42-Pad42)*
X151800000Y-126900000D03*
G04 #@! TO.P,J2,43,Pin_43*
G04 #@! TO.N,GND*
X153800000Y-128900000D03*
G04 #@! TO.P,J2,44,Pin_44*
G04 #@! TO.N,unconnected-(J2-Pin_44-Pad44)*
X151800000Y-128900000D03*
G04 #@! TD*
D10*
G04 #@! TO.P,IC3,20,VCC*
G04 #@! TO.N,+5V*
X172050000Y-83185000D03*
G04 #@! TO.P,IC3,19,CE*
G04 #@! TO.N,IDEBUF*
X172050000Y-85725000D03*
G04 #@! TO.P,IC3,18,B0*
G04 #@! TO.N,D15*
X172050000Y-88265000D03*
G04 #@! TO.P,IC3,17,B1*
G04 #@! TO.N,D14*
X172050000Y-90805000D03*
G04 #@! TO.P,IC3,16,B2*
G04 #@! TO.N,D13*
X172050000Y-93345000D03*
G04 #@! TO.P,IC3,15,B3*
G04 #@! TO.N,D12*
X172050000Y-95885000D03*
G04 #@! TO.P,IC3,14,B4*
G04 #@! TO.N,D11*
X172050000Y-98425000D03*
G04 #@! TO.P,IC3,13,B5*
G04 #@! TO.N,D10*
X172050000Y-100965000D03*
G04 #@! TO.P,IC3,12,B6*
G04 #@! TO.N,D9*
X172050000Y-103505000D03*
G04 #@! TO.P,IC3,11,B7*
G04 #@! TO.N,D8*
X172050000Y-106045000D03*
G04 #@! TO.P,IC3,10,GND*
G04 #@! TO.N,GND*
X164430000Y-106045000D03*
G04 #@! TO.P,IC3,9,A7*
G04 #@! TO.N,BD0*
X164430000Y-103505000D03*
G04 #@! TO.P,IC3,8,A6*
G04 #@! TO.N,BD1*
X164430000Y-100965000D03*
G04 #@! TO.P,IC3,7,A5*
G04 #@! TO.N,BD2*
X164430000Y-98425000D03*
G04 #@! TO.P,IC3,6,A4*
G04 #@! TO.N,BD3*
X164430000Y-95885000D03*
G04 #@! TO.P,IC3,5,A3*
G04 #@! TO.N,BD4*
X164430000Y-93345000D03*
G04 #@! TO.P,IC3,4,A2*
G04 #@! TO.N,BD5*
X164430000Y-90805000D03*
G04 #@! TO.P,IC3,3,A1*
G04 #@! TO.N,BD6*
X164430000Y-88265000D03*
G04 #@! TO.P,IC3,2,A0*
G04 #@! TO.N,BD7*
X164430000Y-85725000D03*
D11*
G04 #@! TO.P,IC3,1,A->B*
G04 #@! TO.N,RW*
X164430000Y-83185000D03*
G04 #@! TD*
D18*
G04 #@! TO.P,BUS1,1,Pin_1*
G04 #@! TO.N,+5V*
X178662000Y-45600300D03*
D19*
G04 #@! TO.P,BUS1,2,Pin_2*
G04 #@! TO.N,A1*
X181202000Y-45600300D03*
G04 #@! TO.P,BUS1,3,Pin_3*
G04 #@! TO.N,CPUCLK*
X178662000Y-48140300D03*
G04 #@! TO.P,BUS1,4,Pin_4*
G04 #@! TO.N,A2*
X181202000Y-48140300D03*
G04 #@! TO.P,BUS1,5,Pin_5*
G04 #@! TO.N,GND*
X178662000Y-50680300D03*
G04 #@! TO.P,BUS1,6,Pin_6*
G04 #@! TO.N,A3*
X181202000Y-50680300D03*
G04 #@! TO.P,BUS1,7,Pin_7*
G04 #@! TO.N,VPA*
X178662000Y-53220300D03*
G04 #@! TO.P,BUS1,8,Pin_8*
G04 #@! TO.N,A4*
X181202000Y-53220300D03*
G04 #@! TO.P,BUS1,9,Pin_9*
G04 #@! TO.N,E*
X178662000Y-55760300D03*
G04 #@! TO.P,BUS1,10,Pin_10*
G04 #@! TO.N,A5*
X181202000Y-55760300D03*
G04 #@! TO.P,BUS1,11,Pin_11*
G04 #@! TO.N,VMA*
X178662000Y-58300300D03*
G04 #@! TO.P,BUS1,12,Pin_12*
G04 #@! TO.N,A6*
X181202000Y-58300300D03*
G04 #@! TO.P,BUS1,13,Pin_13*
G04 #@! TO.N,MFPIEO*
X178662000Y-60840300D03*
G04 #@! TO.P,BUS1,14,Pin_14*
G04 #@! TO.N,A7*
X181202000Y-60840300D03*
G04 #@! TO.P,BUS1,15,Pin_15*
G04 #@! TO.N,IOSEL*
X178662000Y-63380300D03*
G04 #@! TO.P,BUS1,16,Pin_16*
G04 #@! TO.N,A8*
X181202000Y-63380300D03*
G04 #@! TO.P,BUS1,17,Pin_17*
G04 #@! TO.N,EXPSEL*
X178662000Y-65920300D03*
G04 #@! TO.P,BUS1,18,Pin_18*
G04 #@! TO.N,A9*
X181202000Y-65920300D03*
G04 #@! TO.P,BUS1,19,Pin_19*
G04 #@! TO.N,FC0*
X178662000Y-68460300D03*
G04 #@! TO.P,BUS1,20,Pin_20*
G04 #@! TO.N,A10*
X181202000Y-68460300D03*
G04 #@! TO.P,BUS1,21,Pin_21*
G04 #@! TO.N,FC1*
X178662000Y-71000300D03*
G04 #@! TO.P,BUS1,22,Pin_22*
G04 #@! TO.N,A11*
X181202000Y-71000300D03*
G04 #@! TO.P,BUS1,23,Pin_23*
G04 #@! TO.N,FC2*
X178662000Y-73540300D03*
G04 #@! TO.P,BUS1,24,Pin_24*
G04 #@! TO.N,A12*
X181202000Y-73540300D03*
G04 #@! TO.P,BUS1,25,Pin_25*
G04 #@! TO.N,IPL0*
X178662000Y-76080300D03*
G04 #@! TO.P,BUS1,26,Pin_26*
G04 #@! TO.N,A13*
X181202000Y-76080300D03*
G04 #@! TO.P,BUS1,27,Pin_27*
G04 #@! TO.N,IPL1*
X178662000Y-78620300D03*
G04 #@! TO.P,BUS1,28,Pin_28*
G04 #@! TO.N,A14*
X181202000Y-78620300D03*
G04 #@! TO.P,BUS1,29,Pin_29*
G04 #@! TO.N,IPL2*
X178662000Y-81160300D03*
G04 #@! TO.P,BUS1,30,Pin_30*
G04 #@! TO.N,A15*
X181202000Y-81160300D03*
G04 #@! TO.P,BUS1,31,Pin_31*
G04 #@! TO.N,LDS*
X178662000Y-83700300D03*
G04 #@! TO.P,BUS1,32,Pin_32*
G04 #@! TO.N,A16*
X181202000Y-83700300D03*
G04 #@! TO.P,BUS1,33,Pin_33*
G04 #@! TO.N,UDS*
X178662000Y-86240300D03*
G04 #@! TO.P,BUS1,34,Pin_34*
G04 #@! TO.N,A17*
X181202000Y-86240300D03*
G04 #@! TO.P,BUS1,35,Pin_35*
G04 #@! TO.N,RESET*
X178662000Y-88780300D03*
G04 #@! TO.P,BUS1,36,Pin_36*
G04 #@! TO.N,A18*
X181202000Y-88780300D03*
G04 #@! TO.P,BUS1,37,Pin_37*
G04 #@! TO.N,D15*
X178662000Y-91320300D03*
G04 #@! TO.P,BUS1,38,Pin_38*
G04 #@! TO.N,A19*
X181202000Y-91320300D03*
G04 #@! TO.P,BUS1,39,Pin_39*
G04 #@! TO.N,D14*
X178662000Y-93860300D03*
G04 #@! TO.P,BUS1,40,Pin_40*
G04 #@! TO.N,A20*
X181202000Y-93860300D03*
G04 #@! TO.P,BUS1,41,Pin_41*
G04 #@! TO.N,D13*
X178662000Y-96400300D03*
G04 #@! TO.P,BUS1,42,Pin_42*
G04 #@! TO.N,A21*
X181202000Y-96400300D03*
G04 #@! TO.P,BUS1,43,Pin_43*
G04 #@! TO.N,D12*
X178662000Y-98940300D03*
G04 #@! TO.P,BUS1,44,Pin_44*
G04 #@! TO.N,A22*
X181202000Y-98940300D03*
G04 #@! TO.P,BUS1,45,Pin_45*
G04 #@! TO.N,D11*
X178662000Y-101480300D03*
G04 #@! TO.P,BUS1,46,Pin_46*
G04 #@! TO.N,A23*
X181202000Y-101480300D03*
G04 #@! TO.P,BUS1,47,Pin_47*
G04 #@! TO.N,D10*
X178662000Y-104020300D03*
G04 #@! TO.P,BUS1,48,Pin_48*
G04 #@! TO.N,AS*
X181202000Y-104020300D03*
G04 #@! TO.P,BUS1,49,Pin_49*
G04 #@! TO.N,D9*
X178662000Y-106560300D03*
G04 #@! TO.P,BUS1,50,Pin_50*
G04 #@! TO.N,BERR*
X181202000Y-106560300D03*
G04 #@! TO.P,BUS1,51,Pin_51*
G04 #@! TO.N,D8*
X178662000Y-109100300D03*
G04 #@! TO.P,BUS1,52,Pin_52*
G04 #@! TO.N,BG*
X181202000Y-109100300D03*
G04 #@! TO.P,BUS1,53,Pin_53*
G04 #@! TO.N,D7*
X178662000Y-111640300D03*
G04 #@! TO.P,BUS1,54,Pin_54*
G04 #@! TO.N,BGACK*
X181202000Y-111640300D03*
G04 #@! TO.P,BUS1,55,Pin_55*
G04 #@! TO.N,D6*
X178662000Y-114180300D03*
G04 #@! TO.P,BUS1,56,Pin_56*
G04 #@! TO.N,BR*
X181202000Y-114180300D03*
G04 #@! TO.P,BUS1,57,Pin_57*
G04 #@! TO.N,D5*
X178662000Y-116720300D03*
G04 #@! TO.P,BUS1,58,Pin_58*
G04 #@! TO.N,DTACK*
X181202000Y-116720300D03*
G04 #@! TO.P,BUS1,59,Pin_59*
G04 #@! TO.N,D4*
X178662000Y-119260300D03*
G04 #@! TO.P,BUS1,60,Pin_60*
G04 #@! TO.N,RW*
X181202000Y-119260300D03*
G04 #@! TO.P,BUS1,61,Pin_61*
G04 #@! TO.N,D3*
X178662000Y-121800300D03*
G04 #@! TO.P,BUS1,62,Pin_62*
G04 #@! TO.N,D0*
X181202000Y-121800300D03*
G04 #@! TO.P,BUS1,63,Pin_63*
G04 #@! TO.N,D2*
X178662000Y-124340300D03*
G04 #@! TO.P,BUS1,64,Pin_64*
G04 #@! TO.N,D1*
X181202000Y-124340300D03*
G04 #@! TD*
D12*
G04 #@! TO.P,C1,1*
G04 #@! TO.N,+5V*
X175350000Y-109710000D03*
G04 #@! TO.P,C1,2*
G04 #@! TO.N,GND*
X175350000Y-112210000D03*
G04 #@! TD*
G04 #@! TO.P,R1,1*
G04 #@! TO.N,+5V*
X158900000Y-107000000D03*
D13*
G04 #@! TO.P,R1,2*
G04 #@! TO.N,Net-(D2-A)*
X158900000Y-114620000D03*
G04 #@! TD*
D20*
G04 #@! TO.N,A11*
X175435200Y-71668000D02*
X175942500Y-72175300D01*
X175942500Y-72175300D02*
X179324700Y-72175300D01*
X179324700Y-72175300D02*
X180499700Y-71000300D01*
X180499700Y-71000300D02*
X181202000Y-71000300D01*
G04 #@! TO.N,FC2*
X166056700Y-54627000D02*
X171226400Y-59796700D01*
X171226400Y-59796700D02*
X172773700Y-59796700D01*
X172773700Y-59796700D02*
X176655800Y-63678800D01*
X176655800Y-63678800D02*
X176655800Y-65604000D01*
X176655800Y-65604000D02*
X178251800Y-67200000D01*
X178251800Y-67200000D02*
X181603401Y-67200000D01*
X181603401Y-67200000D02*
X182377000Y-67973599D01*
X164530000Y-53590000D02*
X166056700Y-53590000D01*
X182377000Y-67973599D02*
X182377000Y-71523000D01*
X166056700Y-53590000D02*
X166056700Y-54627000D01*
X182377000Y-71523000D02*
X181534700Y-72365300D01*
X181534700Y-72365300D02*
X179837000Y-72365300D01*
X179837000Y-72365300D02*
X178662000Y-73540300D01*
G04 #@! TO.N,~{IDECS0}*
X149480000Y-73920000D02*
X147953300Y-73920000D01*
X154832000Y-123932000D02*
X153800000Y-122900000D01*
X154832000Y-129288600D02*
X154832000Y-123932000D01*
X154199800Y-129920800D02*
X154832000Y-129288600D01*
X151371600Y-129920800D02*
X154199800Y-129920800D01*
X147468400Y-126017600D02*
X151371600Y-129920800D01*
X147468400Y-74404900D02*
X147468400Y-126017600D01*
X147953300Y-73920000D02*
X147468400Y-74404900D01*
G04 #@! TO.N,Net-(D2-A)*
X160165000Y-117011700D02*
X160165000Y-119400000D01*
X158900000Y-115746700D02*
X160165000Y-117011700D01*
X158900000Y-114620000D02*
X158900000Y-115746700D01*
G04 #@! TO.N,~{IDECS1}*
X147953300Y-119053300D02*
X147953300Y-76460000D01*
X151800000Y-122900000D02*
X147953300Y-119053300D01*
X149480000Y-76460000D02*
X147953300Y-76460000D01*
G04 #@! TO.N,IDERDY*
X157100000Y-61220000D02*
X158626700Y-61220000D01*
X159530100Y-62123400D02*
X158626700Y-61220000D01*
X159530100Y-70114400D02*
X159530100Y-62123400D01*
X159078400Y-70566100D02*
X159530100Y-70114400D01*
X159078400Y-102631600D02*
X159078400Y-70566100D01*
X157500000Y-104210000D02*
X159078400Y-102631600D01*
G04 #@! TO.N,~{IDEWR}*
X152257900Y-67551200D02*
X151006700Y-66300000D01*
X152257900Y-83545800D02*
X152257900Y-67551200D01*
X154801700Y-86089600D02*
X152257900Y-83545800D01*
X154801700Y-107898300D02*
X154801700Y-86089600D01*
X153800000Y-108900000D02*
X154801700Y-107898300D01*
X149480000Y-66300000D02*
X151006700Y-66300000D01*
G04 #@! TO.N,FC0*
X166056700Y-59719600D02*
X166056700Y-58670000D01*
X171357100Y-65020000D02*
X166056700Y-59719600D01*
X174045000Y-65020000D02*
X171357100Y-65020000D01*
X177485300Y-68460300D02*
X174045000Y-65020000D01*
X178662000Y-68460300D02*
X177485300Y-68460300D01*
X164530000Y-58670000D02*
X166056700Y-58670000D01*
G04 #@! TO.N,FC1*
X163003300Y-61693300D02*
X163003300Y-56130000D01*
X163790000Y-62480000D02*
X163003300Y-61693300D01*
X165461700Y-62480000D02*
X163790000Y-62480000D01*
X170541700Y-67560000D02*
X165461700Y-62480000D01*
X174045000Y-67560000D02*
X170541700Y-67560000D01*
X177485300Y-71000300D02*
X174045000Y-67560000D01*
X178662000Y-71000300D02*
X177485300Y-71000300D01*
X164530000Y-56130000D02*
X163003300Y-56130000D01*
G04 #@! TO.N,IDEBUF*
X173576700Y-85725000D02*
X173576700Y-112300000D01*
X172050000Y-85725000D02*
X173576700Y-85725000D01*
X172050000Y-112300000D02*
X173576700Y-112300000D01*
G04 #@! TO.N,~{IDERD}*
X149480000Y-63760000D02*
X151006700Y-63760000D01*
X154801700Y-67555000D02*
X151006700Y-63760000D01*
X154801700Y-85407000D02*
X154801700Y-67555000D01*
X155251900Y-85857200D02*
X154801700Y-85407000D01*
X155251900Y-85901000D02*
X155251900Y-85857200D01*
X155253400Y-85902500D02*
X155251900Y-85901000D01*
X155253400Y-109446600D02*
X155253400Y-85902500D01*
X153800000Y-110900000D02*
X155253400Y-109446600D01*
G04 #@! TO.N,VPA*
X179847800Y-54406100D02*
X178662000Y-53220300D01*
X181742600Y-54406100D02*
X179847800Y-54406100D01*
X182421800Y-53726900D02*
X181742600Y-54406100D01*
X182421800Y-47641300D02*
X182421800Y-53726900D01*
X181743100Y-46962600D02*
X182421800Y-47641300D01*
X157644100Y-46962600D02*
X181743100Y-46962600D01*
X151006700Y-53600000D02*
X157644100Y-46962600D01*
X149480000Y-53600000D02*
X151006700Y-53600000D01*
G04 #@! TO.N,A1*
X157100000Y-63760000D02*
X158626700Y-63760000D01*
X159078400Y-64211700D02*
X158626700Y-63760000D01*
X159078400Y-69927300D02*
X159078400Y-64211700D01*
X158626700Y-70379000D02*
X159078400Y-69927300D01*
X158626700Y-80890300D02*
X158626700Y-70379000D01*
X156210200Y-83306800D02*
X158626700Y-80890300D01*
X156210200Y-118489800D02*
X156210200Y-83306800D01*
X153800000Y-120900000D02*
X156210200Y-118489800D01*
G04 #@! TO.N,A3*
X180025300Y-50312600D02*
X180025300Y-50680300D01*
X179078500Y-49365800D02*
X180025300Y-50312600D01*
X163104300Y-49365800D02*
X179078500Y-49365800D01*
X160797600Y-51672500D02*
X163104300Y-49365800D01*
X160797600Y-54497400D02*
X160797600Y-51672500D01*
X157885000Y-57410000D02*
X160797600Y-54497400D01*
X155341100Y-57410000D02*
X157885000Y-57410000D01*
X150261100Y-62490000D02*
X155341100Y-57410000D01*
X148718000Y-62490000D02*
X150261100Y-62490000D01*
X147953300Y-63254700D02*
X148718000Y-62490000D01*
X147953300Y-71380000D02*
X147953300Y-63254700D01*
X181202000Y-50680300D02*
X180025300Y-50680300D01*
X149046400Y-71380000D02*
X147953300Y-71380000D01*
X149046400Y-71380000D02*
X149480000Y-71380000D01*
X150796300Y-119896300D02*
X151800000Y-120900000D01*
X150796300Y-80128700D02*
X150796300Y-119896300D01*
X151006700Y-79918300D02*
X150796300Y-80128700D01*
X151006700Y-71380000D02*
X151006700Y-79918300D01*
X149480000Y-71380000D02*
X151006700Y-71380000D01*
G04 #@! TO.N,A5*
X174496400Y-56949700D02*
X173676700Y-56130000D01*
X179203600Y-56949700D02*
X174496400Y-56949700D01*
X180025300Y-56128000D02*
X179203600Y-56949700D01*
X180025300Y-55760300D02*
X180025300Y-56128000D01*
X181202000Y-55760300D02*
X180025300Y-55760300D01*
X172150000Y-56130000D02*
X173676700Y-56130000D01*
G04 #@! TO.N,D0*
X180025300Y-126171400D02*
X173576700Y-132620000D01*
X180025300Y-123785900D02*
X180025300Y-126171400D01*
X180834200Y-122977000D02*
X180025300Y-123785900D01*
X181202000Y-122977000D02*
X180834200Y-122977000D01*
X181202000Y-121800300D02*
X181202000Y-122977000D01*
X172050000Y-132620000D02*
X173576700Y-132620000D01*
G04 #@! TO.N,RW*
X169766700Y-113570000D02*
X165956700Y-109760000D01*
X173827800Y-113570000D02*
X169766700Y-113570000D01*
X178341400Y-118083600D02*
X173827800Y-113570000D01*
X179216400Y-118083600D02*
X178341400Y-118083600D01*
X180025300Y-118892500D02*
X179216400Y-118083600D01*
X180025300Y-119260300D02*
X180025300Y-118892500D01*
X181202000Y-119260300D02*
X180025300Y-119260300D01*
X164430000Y-109760000D02*
X165956700Y-109760000D01*
X165956700Y-83185000D02*
X165956700Y-109760000D01*
X164430000Y-83185000D02*
X165956700Y-83185000D01*
G04 #@! TO.N,A14*
X174501400Y-79814700D02*
X173676700Y-78990000D01*
X179198600Y-79814700D02*
X174501400Y-79814700D01*
X180025300Y-78988000D02*
X179198600Y-79814700D01*
X180025300Y-78620300D02*
X180025300Y-78988000D01*
X181202000Y-78620300D02*
X180025300Y-78620300D01*
X172150000Y-78990000D02*
X173676700Y-78990000D01*
G04 #@! TO.N,A12*
X174520600Y-74753900D02*
X173676700Y-73910000D01*
X179179400Y-74753900D02*
X174520600Y-74753900D01*
X180025300Y-73908000D02*
X179179400Y-74753900D01*
X180025300Y-73540300D02*
X180025300Y-73908000D01*
X181202000Y-73540300D02*
X180025300Y-73540300D01*
X172150000Y-73910000D02*
X173676700Y-73910000D01*
G04 #@! TO.N,A13*
X174520600Y-77293900D02*
X173676700Y-76450000D01*
X179179400Y-77293900D02*
X174520600Y-77293900D01*
X180025300Y-76448000D02*
X179179400Y-77293900D01*
X180025300Y-76080300D02*
X180025300Y-76448000D01*
X181202000Y-76080300D02*
X180025300Y-76080300D01*
X172150000Y-76450000D02*
X173676700Y-76450000D01*
G04 #@! TO.N,A4*
X181202000Y-53220300D02*
X180025300Y-53220300D01*
X180025300Y-52852500D02*
X180025300Y-53220300D01*
X179216400Y-52043600D02*
X180025300Y-52852500D01*
X178289900Y-52043600D02*
X179216400Y-52043600D01*
X176063800Y-49817500D02*
X178289900Y-52043600D01*
X163300100Y-49817500D02*
X176063800Y-49817500D01*
X162454300Y-50663300D02*
X163300100Y-49817500D01*
X162454300Y-55330300D02*
X162454300Y-50663300D01*
X157834600Y-59950000D02*
X162454300Y-55330300D01*
X156281000Y-59950000D02*
X157834600Y-59950000D01*
X155573300Y-60657700D02*
X156281000Y-59950000D01*
X155573300Y-64232000D02*
X155573300Y-60657700D01*
X156371300Y-65030000D02*
X155573300Y-64232000D01*
X157825000Y-65030000D02*
X156371300Y-65030000D01*
X158626700Y-65831700D02*
X157825000Y-65030000D01*
X158626700Y-69515000D02*
X158626700Y-65831700D01*
X157100000Y-71041700D02*
X158626700Y-69515000D01*
X157100000Y-71380000D02*
X157100000Y-71041700D01*
G04 #@! TO.N,A2*
X157100000Y-66300000D02*
X155573300Y-66300000D01*
X155573300Y-85539800D02*
X155573300Y-66300000D01*
X155705100Y-85671600D02*
X155573300Y-85539800D01*
X155705100Y-116994900D02*
X155705100Y-85671600D01*
X153800000Y-118900000D02*
X155705100Y-116994900D01*
G04 #@! TO.N,A11*
X172150000Y-71370000D02*
X173676700Y-71370000D01*
X173974700Y-71668000D02*
X173676700Y-71370000D01*
X175435200Y-71668000D02*
X173974700Y-71668000D01*
G04 #@! TO.N,IOSEL*
X178662000Y-63380300D02*
X178662000Y-62203600D01*
X164530000Y-51050000D02*
X166056700Y-51050000D01*
X177712100Y-62203600D02*
X178662000Y-62203600D01*
X172910000Y-57401500D02*
X177712100Y-62203600D01*
X171422300Y-57401500D02*
X172910000Y-57401500D01*
X166056700Y-52035900D02*
X171422300Y-57401500D01*
X166056700Y-51050000D02*
X166056700Y-52035900D01*
G04 #@! TO.N,A19*
X180834200Y-90143600D02*
X180025300Y-89334700D01*
X174987200Y-84385000D02*
X173875100Y-83272900D01*
X180025300Y-88442800D02*
X179092800Y-87510300D01*
X181202000Y-90143600D02*
X180834200Y-90143600D01*
X178234800Y-87510300D02*
X177148500Y-86424000D01*
X179092800Y-87510300D02*
X178234800Y-87510300D01*
X177148500Y-86424000D02*
X177148500Y-85786700D01*
X181202000Y-91320300D02*
X181202000Y-90143600D01*
X177148500Y-85786700D02*
X175746800Y-84385000D01*
X180025300Y-89334700D02*
X180025300Y-88442800D01*
X175746800Y-84385000D02*
X174987200Y-84385000D01*
X173875100Y-83272900D02*
X173875100Y-82989800D01*
X173875100Y-82989800D02*
X166056700Y-75171400D01*
X166056700Y-75171400D02*
X166056700Y-73910000D01*
X164530000Y-73910000D02*
X166056700Y-73910000D01*
G04 #@! TD*
M02*
